<svg width="82" height="53" viewBox="0 0 82 53" fill="none" xmlns="http://www.w3.org/2000/svg">
<path d="M9.33105 11.4971C9.25781 11.7461 9.09668 11.9951 8.8623 12.2148C8.61328 12.4492 8.33496 12.6982 8.0127 12.9473C7.4707 13.3428 6.94336 13.8408 6.45996 14.4121C5.97656 14.998 5.68359 15.7451 5.61035 16.668C5.5957 17.6348 5.80078 18.4111 6.22559 18.9824C6.63574 19.5684 7.13379 19.876 7.71973 19.9053C8.30566 19.9346 8.84766 19.5977 9.3457 18.9092L9.33105 11.4971ZM2.63672 9.09473C2.7832 8.68457 3.07617 8.27441 3.51562 7.86426C4.08691 7.32227 4.80469 6.9707 5.69824 6.80957C6.57715 6.64844 7.5293 6.5752 8.55469 6.58984C9.59473 6.60449 10.5762 6.79492 11.5137 7.14648C12.4365 7.5127 13.1982 8.04004 13.7988 8.72852C14.3994 9.43164 14.6924 10.3105 14.707 11.3506L14.7217 19.5977C14.707 19.9492 14.7217 20.3154 14.7656 20.6816C14.7949 21.0479 14.8975 21.3701 15.0586 21.6338C15.2197 21.9121 15.498 22.0439 15.8789 22.0439H11.2793C10.4883 22.0586 9.93164 21.8389 9.62402 21.4141C9.31641 20.9893 9.21387 20.2568 9.3457 19.2314C8.4668 20.374 7.48535 21.165 6.40137 21.5898C5.30273 22.0293 4.27734 22.1465 3.2959 21.9561C2.31445 21.7656 1.53809 21.2822 0.966797 20.5352C0.395508 19.7881 0.19043 18.792 0.351562 17.5615C0.512695 16.5801 0.878906 15.8184 1.43555 15.2617C1.99219 14.7051 2.65137 14.2803 3.41309 13.9727C4.16016 13.665 4.93652 13.416 5.71289 13.2256C6.65039 12.9912 7.45605 12.6982 8.14453 12.3613C8.81836 12.0244 9.21387 11.4824 9.33105 10.7646C9.50684 8.9043 8.9502 7.79102 7.67578 7.43945C6.38672 7.10254 5.34668 7.14648 4.55566 7.60059C5.36133 7.54199 6.00586 7.74707 6.51855 8.23047C7.03125 8.71387 7.28027 9.28516 7.28027 9.94434C7.28027 10.6035 7.0459 11.1748 6.57715 11.6289C6.1084 12.0977 5.53711 12.332 4.87793 12.332C4.21875 12.332 3.66211 12.0977 3.19336 11.6289C2.72461 11.1748 2.49023 10.6035 2.49023 9.94434C2.49023 9.63672 2.53418 9.3584 2.63672 9.09473ZM23.4082 0.935547V8.59668C28.0225 4.29004 33.8965 8.02539 33.9404 14.5293C33.9404 20.0371 29.4141 22.1611 26.6602 22.1611C25.3857 22.1611 24.1553 21.6777 23.3496 20.8721C22.6465 20.1543 19.8047 21.1211 17.915 22.1611L17.9736 2.40039C18.457 2.41504 22.4414 2.26855 23.4082 0.935547ZM25.5908 21.751C29.9561 21.3848 29.0918 4.26074 23.4082 8.93359C23.4082 8.93359 23.4082 18.3965 23.4082 18.6309C23.4814 20.418 24.5947 21.751 25.5908 21.751ZM43.7988 6.5752C48.2666 6.5752 51.8848 10.0176 51.8848 14.2803C51.8848 18.5283 48.2666 21.9707 43.7988 21.9707C39.3164 21.9707 35.6982 18.5283 35.6982 14.2803C35.6982 10.0176 39.3164 6.5752 43.7988 6.5752ZM46.4941 13.5186C45.3955 9.68066 43.2861 6.89746 41.792 7.30762C40.2832 7.73242 39.9756 11.1748 41.0889 15.0273C42.1875 18.8652 44.2969 21.6484 45.8057 21.2383C47.2998 20.8135 47.6074 17.3711 46.4941 13.5186ZM63.75 17.752V8.05469C66.1816 8.11328 67.998 7.61523 69.1992 6.58984L69.1846 22H63.75V18.7188C63.4131 19.8027 62.7979 20.623 61.875 21.1504C60.8496 21.751 59.7217 22.0146 58.4912 21.9268C57.2461 21.8535 56.1768 21.4287 55.2832 20.6523C54.375 19.876 53.9062 18.7627 53.8623 17.2979L53.8477 8.05469C56.1768 8.18652 57.9639 7.68848 59.2236 6.58984L59.2383 18.0596C59.2822 19.2754 59.6484 20.0371 60.3369 20.3301C61.0107 20.623 61.7139 20.5059 62.4463 19.9639C63.0762 19.5098 63.5156 18.7627 63.75 17.752ZM70.2246 7.30762V7.01465C73.5059 6.79492 76.2451 4.68555 77.6221 1.8291V6.86816H80.2002V7.30762H77.6221V17.8545C77.6221 19.3047 78.4277 20.1689 79.5117 20.1689C80.0537 20.1689 80.6396 19.9492 81.2549 19.5098C80.4199 21.1064 78.6768 22.0146 77.0068 22.0146C74.9414 22.0146 72.2168 20.6084 72.2168 17.4443V7.30762H70.2246ZM5.99121 40.8086V51.9707H0.541992L0.556641 38.1719C3.14941 38.4062 4.96582 37.8643 5.99121 36.5605V39.8418C6.32812 38.7432 6.94336 37.9229 7.88086 37.3809C8.90625 36.7803 10.0342 36.5312 11.2646 36.6045C12.4951 36.6924 13.5645 37.1172 14.4727 37.8936C15.1758 38.4941 15.6152 39.3145 15.791 40.3398V40.2227C16.084 38.9336 16.7432 37.9814 17.7686 37.3809C18.7939 36.7803 19.9219 36.5166 21.167 36.5898C22.3975 36.6777 23.4668 37.1025 24.375 37.8789C25.2686 38.6553 25.7373 39.7832 25.7812 41.248L25.7959 51.9414H20.4199L20.4053 40.4717C20.3613 39.2559 19.9951 38.5088 19.3213 38.2158C18.6328 37.9229 17.9297 38.04 17.1973 38.582C16.5381 39.0654 16.0986 39.8418 15.8643 40.9258C15.8643 41.0283 15.8789 41.1455 15.8789 41.248L15.8936 51.9561H10.5176L10.5029 40.4863C10.459 39.2705 10.0928 38.5088 9.41895 38.2158C8.73047 37.9229 8.02734 38.04 7.30957 38.582C6.67969 39.0508 6.24023 39.7832 5.99121 40.8086ZM34.1309 36.6924C36.3281 36.3408 38.1738 36.8682 39.6826 38.2744C41.1914 39.6807 41.9824 41.8047 42.0557 44.6611L33.2227 44.749C33.6621 46.1992 34.3359 47.2246 35.2295 47.8252C36.123 48.4258 37.2217 48.748 38.54 48.8066C39.8584 48.8652 41.1182 48.1475 42.334 46.668C41.8799 48.499 41.0303 49.8613 39.7852 50.7402C38.54 51.6191 37.1338 52.0586 35.5811 52.0879C33.3691 52.0879 31.5381 51.3994 30.1025 50.0371C28.667 48.6748 27.9053 46.7705 27.832 44.3535C27.8174 42.5225 28.3447 40.8818 29.4287 39.4023C30.5127 37.9082 32.0801 37.0146 34.1309 36.6924ZM33.1055 44.2949C34.1162 44.2803 34.9512 44.2217 35.6104 44.1338C36.5332 44.0166 36.9287 43.4307 36.8115 42.3906C36.7383 41.9219 36.6504 41.4678 36.5332 41.0283C36.3428 40.252 36.0938 39.5342 35.7861 38.8604C35.2881 37.791 34.6875 37.2344 33.9697 37.2051C33.2227 37.1758 32.7979 37.8496 32.666 39.2412C32.5342 40.6182 32.6807 42.3027 33.1055 44.2949Z" fill="#E8E8E8"/>
</svg>


