<svg width="11" height="8" viewBox="0 0 11 8" fill="none" xmlns="http://www.w3.org/2000/svg">
<path d="M3.21484 5.02246C2.2627 5.02246 0.607422 4.48047 0.607422 2.7666C0.607422 1.47754 1.53027 0.701172 2.73145 0.701172C4.24023 0.701172 4.9873 1.90234 4.9873 3.2793C4.9873 5.16895 3.63965 7.4541 0.753906 7.80566C2.2041 7.39551 3.21484 6.22363 3.21484 5.02246ZM8.62012 5.02246C7.65332 5.02246 6.0127 4.48047 6.0127 2.7666C6.0127 1.47754 6.93555 0.701172 8.13672 0.701172C9.63086 0.701172 10.3926 1.90234 10.3926 3.2793C10.3926 5.16895 9.03027 7.4541 6.15918 7.80566C7.59473 7.39551 8.62012 6.22363 8.62012 5.02246Z" fill="#E8E8E8"/>
</svg>
