<svg width="77" height="55" viewBox="0 0 77 55" fill="none" xmlns="http://www.w3.org/2000/svg">
<path d="M6.5625 0.0712891C7.54395 0.0419922 8.4082 0.232422 9.12598 0.657227C9.8584 1.08203 10.2539 1.87305 10.3125 3.01562C10.2979 3.63086 10.0928 4.14355 9.68262 4.55371C9.27246 4.96387 8.75977 5.18359 8.14453 5.19824C7.5293 5.18359 7.0166 4.96387 6.60645 4.55371C6.19629 4.14355 5.97656 3.63086 5.96191 3.01562C5.96191 2.41504 6.16699 1.90234 6.5918 1.49219C7.00195 1.06738 7.5293 0.862305 8.14453 0.847656C8.30566 0.847656 8.48145 0.862305 8.64258 0.90625C7.29492 0.291016 6.24023 0.408203 5.50781 1.27246C4.76074 2.13672 4.59961 3.29395 5.02441 4.71484C5.44922 6.13574 6.47461 6.85352 8.10059 6.83887H10.0928V7.29297H7.0752L6.9873 22.0146H1.56738L1.64062 7.27832H0.424805V6.83887H1.64062V4.89062C1.64062 1.8291 3.28125 0.217773 6.5625 0.0712891ZM17.9883 6.5752C22.4561 6.5752 26.0742 10.0176 26.0742 14.2803C26.0742 18.5283 22.4561 21.9707 17.9883 21.9707C13.5059 21.9707 9.8877 18.5283 9.8877 14.2803C9.8877 10.0176 13.5059 6.5752 17.9883 6.5752ZM20.6836 13.5186C19.585 9.68066 17.4756 6.89746 15.9814 7.30762C14.4727 7.73242 14.165 11.1748 15.2783 15.0273C16.377 18.8652 18.4863 21.6484 19.9951 21.2383C21.4893 20.8135 21.7969 17.3711 20.6836 13.5186ZM38.1738 7.71777C37.9248 7.36621 37.4414 7.29297 36.7383 7.49805C36.0352 7.68848 35.4932 8.04004 35.127 8.56738C34.3506 9.65137 33.8232 11.1602 33.5742 13.0938L33.5596 22.0732H28.1104L28.125 7.99609C30.5713 8.23047 32.3877 7.79102 33.5742 6.66309V11.0723C33.7939 9.90039 34.2334 8.91895 34.9072 8.11328C35.6396 7.26367 36.6064 6.83887 37.793 6.85352C38.9941 6.85352 39.917 7.11719 40.6055 7.64453C41.2793 8.17188 41.6309 8.9043 41.6455 9.8418C41.6455 10.501 41.4111 11.0723 40.9424 11.5264C40.4736 11.9951 39.917 12.2295 39.2578 12.2295C38.5986 12.2295 38.0273 11.9951 37.5586 11.5264C37.0898 11.0723 36.8555 10.501 36.8555 9.8418C36.8408 8.77246 37.2803 8.06934 38.1738 7.71777ZM12.7295 45.5547L10.4297 52H5.37598L0.117188 36.6191L5.55176 36.6045L10.4443 50.4912C11.4258 48.1182 12.0264 46.0234 12.2607 44.1924L9.66797 36.5898L15.0879 36.5752L19.9805 50.4619C21.0352 47.9277 21.665 45.7012 21.8555 43.7969C22.0459 41.8926 21.9141 40.3252 21.4746 39.1094C21.0352 37.8936 20.3906 37.0586 19.541 36.5752H22.9834C23.2764 36.5752 23.5693 36.5898 23.8477 36.6191C24.126 36.6631 24.3457 36.7656 24.5068 36.9414C24.668 37.1318 24.7559 37.4248 24.7559 37.8496C24.7412 38.2744 24.6094 38.8604 24.3604 39.6074L19.9658 51.9707H14.9121L12.7295 45.5547ZM31.9922 40.6621V52.0146H26.543L26.5576 32.4736C29.3262 32.6494 31.1279 32.1514 31.9922 31.0088V39.8857C32.3291 38.8018 32.9443 37.9814 33.8672 37.4395C34.8926 36.8389 36.0205 36.5752 37.2656 36.6484C38.4961 36.7363 39.5654 37.1611 40.4736 37.9375C41.3672 38.7139 41.8359 39.8418 41.8799 41.3066L41.8945 52H36.5186L36.5039 40.5303C36.46 39.3145 36.0938 38.5527 35.4199 38.2158C34.7314 37.8936 34.0283 37.9814 33.2959 38.4941C32.666 38.9336 32.2266 39.6514 31.9922 40.6621ZM52.0898 36.5752C56.5576 36.5752 60.1758 40.0176 60.1758 44.2803C60.1758 48.5283 56.5576 51.9707 52.0898 51.9707C47.6074 51.9707 43.9893 48.5283 43.9893 44.2803C43.9893 40.0176 47.6074 36.5752 52.0898 36.5752ZM54.7852 43.5186C53.6865 39.6807 51.5771 36.8975 50.083 37.3076C48.5742 37.7324 48.2666 41.1748 49.3799 45.0273C50.4785 48.8652 52.5879 51.6484 54.0967 51.2383C55.5908 50.8135 55.8984 47.3711 54.7852 43.5186ZM64.9658 51.7803C64.9658 50.3594 66.0938 49.2754 67.5293 49.2754C68.9648 49.2754 70.1074 50.3594 70.1074 51.7803C70.1074 53.2012 68.9648 54.373 67.5293 54.373C66.0938 54.373 64.9658 53.2012 64.9658 51.7803ZM66.9287 47.7227C62.0947 40.9111 72.3926 40.9404 72.7148 33.5869C72.7295 32.4736 72.041 31.8145 71.1621 31.6973C67.251 31.4922 65.8594 36.0771 65.4639 38.3037L62.2266 35.2129C64.9805 30.9502 68.2324 30.9648 69.4775 30.9648C72.9346 30.9648 76.0254 32.8105 76.0254 36.5459C76.0254 41.1455 70.9131 43.7383 68.6865 45.4375C67.4414 46.3604 67.6172 46.8291 67.8809 47.708L66.9287 47.7227Z" fill="#E8E8E8"/>
</svg>

