<svg width="162" height="60" viewBox="0 0 162 60" fill="none" xmlns="http://www.w3.org/2000/svg">
<path d="M13.3154 17.6201C13.3154 18.4844 13.0371 19.2461 12.4805 19.9053C11.9092 20.5645 11.1621 21.0918 10.21 21.458C9.25781 21.8242 8.18848 22.0146 6.9873 22.0293C5.90332 22 4.6875 21.8975 3.35449 21.7217C2.00684 21.5459 1.04004 21.3115 0.46875 21.0332L0.498047 18.3525C0.834961 18.5576 1.25977 18.8213 1.75781 19.1582C2.46094 19.627 3.22266 20.0957 4.02832 20.5645C4.83398 21.0332 5.5957 21.3555 6.28418 21.5166C7.36816 21.707 8.15918 21.5898 8.65723 21.165C9.15527 20.7402 9.30176 20.2568 9.08203 19.7002C8.74512 18.9971 8.23242 18.3818 7.55859 17.8691C6.87012 17.3564 6.12305 16.873 5.31738 16.4189C4.74609 16.082 4.18945 15.7451 3.64746 15.3789C3.10547 15.0127 2.60742 14.6172 2.16797 14.1631C1.72852 13.7236 1.37695 13.2109 1.11328 12.6396C0.834961 12.0684 0.703125 11.4092 0.703125 10.6475C0.703125 9.75391 0.966797 8.99219 1.47949 8.3916C1.99219 7.79102 2.66602 7.35156 3.53027 7.04395C4.39453 6.75098 5.33203 6.60449 6.37207 6.60449H6.50391C7.16309 6.58984 8.05664 6.61914 9.18457 6.69238C10.3125 6.76562 11.3525 6.9707 12.3047 7.27832L12.2168 9.97363C12.085 9.90039 11.9092 9.76855 11.6602 9.57812C11.2354 9.27051 10.7227 8.91895 10.0928 8.50879C9.46289 8.09863 8.80371 7.74707 8.12988 7.4541C7.45605 7.16113 6.84082 7.04395 6.26953 7.08789C5.87402 7.13184 5.56641 7.29297 5.34668 7.57129C5.12695 7.84961 5.02441 8.18652 5.00977 8.58203C5.00977 9.21191 5.2002 9.76855 5.56641 10.2227C5.93262 10.6914 6.40137 11.1162 6.9873 11.4971C7.57324 11.8779 8.20312 12.2441 8.8623 12.6104C9.4043 12.9033 9.94629 13.2109 10.4736 13.5332C11.001 13.8701 11.4844 14.2217 11.9092 14.6025C12.334 14.998 12.6855 15.4375 12.9346 15.9209C13.1836 16.4189 13.3154 16.9902 13.3154 17.6201ZM13.7402 7.30762V7.01465C17.0215 6.79492 19.7607 4.68555 21.1377 1.8291V6.86816H23.7158V7.30762H21.1377V17.8545C21.1377 19.3047 21.9434 20.1689 23.0273 20.1689C23.5693 20.1689 24.1553 19.9492 24.7705 19.5098C23.9355 21.1064 22.1924 22.0146 20.5225 22.0146C18.457 22.0146 15.7324 20.6084 15.7324 17.4443V7.30762H13.7402ZM26.2354 25.9258C26.25 25.999 26.2646 26.0576 26.2793 26.1162C26.7041 27.3027 27.7295 27.7861 29.3555 27.5811C30.9814 27.3906 32.2852 26.8047 33.2959 25.8525C34.3066 24.9004 35.0684 23.626 35.5957 22C34.4092 22.0732 33.4277 22.0586 32.6367 21.9707H32.6221C31.8311 21.8828 31.2451 21.6484 30.8496 21.2529C30.4541 20.8574 30.1172 20.2568 29.8389 19.4365L25.6348 6.61914L31.2012 6.60449L36.0938 20.5791C36.8408 18.4844 37.3535 16.3457 37.6611 14.1631C37.9688 11.9951 37.8516 10.3105 37.3389 9.10938C36.8262 7.9082 36.1084 7.07324 35.2148 6.60449H38.6572C38.7598 6.61914 38.877 6.61914 38.9795 6.61914C39.375 6.60449 39.7412 6.63379 40.0635 6.72168C40.3857 6.82422 40.6055 7.08789 40.708 7.5127C40.8105 7.9375 40.7373 8.65527 40.4736 9.63672C37.6758 17.5908 35.9033 22.5273 35.1416 24.417C34.3799 26.3066 33.6475 27.625 32.9443 28.3721C32.2412 29.1191 31.377 29.5146 30.3516 29.5293C28.9893 29.4414 27.9492 29.0312 27.2168 28.3135C26.4697 27.5957 26.0303 26.79 25.8838 25.8672C25.7959 25.3398 25.7959 24.8418 25.8984 24.3877C25.957 23.8457 26.1914 23.377 26.5869 22.9814C27.0557 22.5127 27.6123 22.2783 28.2715 22.2783C28.9307 22.2783 29.502 22.5127 29.9707 22.9814C30.4248 23.4502 30.6592 24.0215 30.6592 24.6807C30.6592 25.3398 30.4248 25.8965 29.9707 26.3652C29.502 26.834 28.9307 27.0684 28.2715 27.0684C27.6123 27.0684 27.0557 26.834 26.5869 26.3652C26.4551 26.2334 26.3379 26.0869 26.2354 25.9258ZM48.2812 21.9268H42.832L42.8467 2.56152C45.6152 2.70801 47.4316 2.16602 48.2812 0.950195V21.9268ZM53.4668 1.00879C54.9902 1.00879 56.2354 2.23926 56.2354 3.77734C56.2354 5.30078 54.9902 6.5459 53.4668 6.5459C51.9434 6.5459 50.6982 5.30078 50.6982 3.77734C50.6982 2.23926 51.9434 1.00879 53.4668 1.00879ZM56.3965 21.9268H50.9473L50.9619 8.12793C53.0859 8.55273 54.8877 8.02539 56.3965 6.5166V21.9268ZM63.9551 10.7939V22H58.5059V8.20117C60.8203 8.3623 62.6367 7.82031 63.9551 6.58984V9.87109C64.2773 8.78711 64.9072 7.9668 65.8301 7.4248C66.8555 6.82422 67.9834 6.5752 69.2285 6.64844C70.459 6.73633 71.5283 7.16113 72.4365 7.9375C73.3301 8.71387 73.7988 9.82715 73.8428 11.292L73.8574 21.9854H68.4814L68.4521 10.5303C68.4082 9.31445 68.042 8.55273 67.3682 8.25977C66.6943 7.9668 65.9912 8.08398 65.2588 8.62598C64.6436 9.08008 64.2041 9.79785 63.9551 10.7939ZM77.7686 24.3145C77.7979 24.8271 77.9297 25.3545 78.1641 25.8672C78.501 26.6582 79.1895 27.3027 80.2295 27.8008C81.2549 28.2988 82.749 28.5186 84.6973 28.46C87.4219 28.123 88.8428 27.4492 88.9746 26.4092C88.9746 25.8818 88.7109 25.501 88.1982 25.2666C87.6709 25.0322 86.9824 24.8857 86.1182 24.8271C85.2539 24.7832 84.3164 24.7539 83.3057 24.7686C82.3242 24.7832 81.3428 24.7539 80.376 24.6953C79.4092 24.6514 78.5449 24.5195 77.7686 24.3145ZM85.6787 12.7568C85.6787 11.1309 85.4736 9.72461 85.0488 8.56738C84.624 7.41016 84.0967 6.83887 83.4961 6.83887C82.8809 6.83887 82.3682 7.41016 81.9434 8.56738C81.5186 9.72461 81.2988 11.1309 81.2988 12.7568C81.2988 14.3828 81.5186 15.7744 81.9434 16.9316C82.3682 18.0889 82.8809 18.6602 83.4961 18.6602C84.0967 18.6602 84.624 18.0889 85.0488 16.9316C85.4736 15.7744 85.6787 14.3828 85.6787 12.7568ZM86.8213 1.36035C86.8945 1.36035 86.9678 1.36035 87.041 1.375C87.8027 1.41895 88.4912 1.72656 89.1064 2.2832C89.7656 2.89844 90.1025 3.71875 90.1025 4.72949C90.0879 5.75488 89.502 6.88281 88.3447 8.12793C89.0039 8.71387 89.5166 9.41699 89.9121 10.2227C90.3076 11.043 90.498 11.9072 90.498 12.8154C90.498 13.9873 90.2051 15.042 89.6191 15.9648C89.0479 16.9023 88.2422 17.6348 87.1729 18.1621C86.1035 18.7041 84.8584 18.9824 83.4082 18.9824C82.4854 18.9824 81.6211 18.8799 80.8447 18.6602C80.083 18.4258 79.3945 18.1035 78.7939 17.6787L78.1201 18.3232C77.5488 19.0557 77.4316 19.5684 77.7832 19.8613C78.1201 20.1689 78.7646 20.3301 79.7168 20.3594C80.6689 20.4033 81.7529 20.3887 82.9834 20.3447C84.4482 20.2715 85.8691 20.2568 87.2314 20.3154C88.5938 20.3887 89.6484 20.6523 90.3955 21.1357C91.2598 21.7949 91.6992 22.5713 91.7139 23.4355C91.7285 24.3145 91.4355 25.1787 90.8203 26.0137C90.1904 26.8486 89.3408 27.5518 88.2715 28.0938C87.2021 28.6357 86.001 28.9287 84.668 28.9434C83.4961 29.0752 82.2363 29.1338 80.8887 29.0898C79.541 29.0605 78.3691 28.8701 77.373 28.5039C76.3623 28.1377 75.8203 27.5371 75.7178 26.6875C75.6299 25.999 76.0254 25.0908 76.8896 23.9775C76.4941 23.7871 76.1719 23.5381 75.9082 23.2451C75.4248 22.498 75.3662 21.6191 75.7324 20.6084C76.084 19.5977 76.9775 18.5283 78.4131 17.3857C77.0215 16.1992 76.3184 14.6758 76.3184 12.8154C76.3184 11.6289 76.6113 10.5596 77.1826 9.62207C77.7686 8.66992 78.5889 7.92285 79.6289 7.39551C80.6982 6.85352 81.958 6.5752 83.4082 6.5752C84.9756 6.58984 86.5137 7 88.0225 7.83496C88.9014 7 89.4141 6.17969 89.5752 5.40332C89.7217 4.62695 89.6631 3.96777 89.3848 3.44043C89.2676 3.2207 89.1357 3.03027 88.9893 2.88379C89.0771 3.13281 89.1211 3.38184 89.1211 3.66016C89.1211 4.30469 88.9014 4.84668 88.4473 5.30078C87.9932 5.75488 87.4512 5.97461 86.8213 5.97461C86.1914 5.97461 85.6494 5.75488 85.1953 5.30078C84.7412 4.84668 84.5068 4.30469 84.5068 3.66016C84.5068 3.03027 84.7412 2.48828 85.1953 2.03418C85.2393 1.99023 85.2832 1.94629 85.3418 1.90234C85.4004 1.84375 85.4736 1.77051 85.5762 1.71191C85.6348 1.66797 85.6934 1.63867 85.7666 1.60938C86.0889 1.44824 86.4404 1.36035 86.8213 1.36035ZM6.28418 58.709H0.834961V58.6943L0.761719 38.2305C1.81641 38.333 5.39062 37.9229 6.21094 36.6191L6.22559 37.8936C7.0166 37.0732 8.24707 36.6045 9.52148 36.6045C12.2754 36.6045 16.8018 38.7285 16.8018 44.2363C16.7578 50.7402 10.8984 54.4609 6.28418 50.1543V58.709ZM8.4668 37.2051C7.45605 37.2051 6.54785 38.2451 6.28418 40.3252V49.6416C11.9531 54.3145 12.8174 37.5713 8.4668 37.2051ZM24.2285 40.6621V52.0146H18.7793L18.7939 32.4736C21.5625 32.6494 23.3643 32.1514 24.2285 31.0088V39.8857C24.5654 38.8018 25.1807 37.9814 26.1035 37.4395C27.1289 36.8389 28.2568 36.5752 29.502 36.6484C30.7324 36.7363 31.8018 37.1611 32.71 37.9375C33.6035 38.7139 34.0723 39.8418 34.1162 41.3066L34.1309 52H28.7549L28.7402 40.5303C28.6963 39.3145 28.3301 38.5527 27.6562 38.2158C26.9678 37.8936 26.2646 37.9814 25.5322 38.4941C24.9023 38.9336 24.4629 39.6514 24.2285 40.6621ZM39.668 31.0088C41.1914 31.0088 42.4365 32.2393 42.4365 33.7773C42.4365 35.3008 41.1914 36.5459 39.668 36.5459C38.1445 36.5459 36.8994 35.3008 36.8994 33.7773C36.8994 32.2393 38.1445 31.0088 39.668 31.0088ZM42.5977 51.9268H37.1484L37.1631 38.1279C39.2871 38.5527 41.0889 38.0254 42.5977 36.5166V51.9268ZM50.3027 51.9268H44.8535L44.8682 32.5615C47.6367 32.708 49.4531 32.166 50.3027 30.9502V51.9268ZM58.418 51.9268H52.9688L52.9834 32.5615C55.752 32.708 57.5684 32.166 58.418 30.9502V51.9268ZM68.4082 36.5752C72.876 36.5752 76.4941 40.0176 76.4941 44.2803C76.4941 48.5283 72.876 51.9707 68.4082 51.9707C63.9258 51.9707 60.3076 48.5283 60.3076 44.2803C60.3076 40.0176 63.9258 36.5752 68.4082 36.5752ZM71.1035 43.5186C70.0049 39.6807 67.8955 36.8975 66.4014 37.3076C64.8926 37.7324 64.585 41.1748 65.6982 45.0273C66.7969 48.8652 68.9062 51.6484 70.415 51.2383C71.9092 50.8135 72.2168 47.3711 71.1035 43.5186ZM90.7471 47.6201C90.7471 48.4844 90.4688 49.2461 89.9121 49.9053C89.3408 50.5645 88.5938 51.0918 87.6416 51.458C86.6895 51.8242 85.6201 52.0146 84.4189 52.0293C83.335 52 82.1191 51.8975 80.7861 51.7217C79.4385 51.5459 78.4717 51.3115 77.9004 51.0332L77.9297 48.3525C78.2666 48.5576 78.6914 48.8213 79.1895 49.1582C79.8926 49.627 80.6543 50.0957 81.46 50.5645C82.2656 51.0332 83.0273 51.3555 83.7158 51.5166C84.7998 51.707 85.5908 51.5898 86.0889 51.165C86.5869 50.7402 86.7334 50.2568 86.5137 49.7002C86.1768 48.9971 85.6641 48.3818 84.9902 47.8691C84.3018 47.3564 83.5547 46.873 82.749 46.4189C82.1777 46.082 81.6211 45.7451 81.0791 45.3789C80.5371 45.0127 80.0391 44.6172 79.5996 44.1631C79.1602 43.7236 78.8086 43.2109 78.5449 42.6396C78.2666 42.0684 78.1348 41.4092 78.1348 40.6475C78.1348 39.7539 78.3984 38.9922 78.9111 38.3916C79.4238 37.791 80.0977 37.3516 80.9619 37.0439C81.8262 36.751 82.7637 36.6045 83.8037 36.6045H83.9355C84.5947 36.5898 85.4883 36.6191 86.6162 36.6924C87.7441 36.7656 88.7842 36.9707 89.7363 37.2783L89.6484 39.9736C89.5166 39.9004 89.3408 39.7686 89.0918 39.5781C88.667 39.2705 88.1543 38.9189 87.5244 38.5088C86.8945 38.0986 86.2354 37.7471 85.5615 37.4541C84.8877 37.1611 84.2725 37.0439 83.7012 37.0879C83.3057 37.1318 82.998 37.293 82.7783 37.5713C82.5586 37.8496 82.4561 38.1865 82.4414 38.582C82.4414 39.2119 82.6318 39.7686 82.998 40.2227C83.3643 40.6914 83.833 41.1162 84.4189 41.4971C85.0049 41.8779 85.6348 42.2441 86.2939 42.6104C86.8359 42.9033 87.3779 43.2109 87.9053 43.5332C88.4326 43.8701 88.916 44.2217 89.3408 44.6025C89.7656 44.998 90.1172 45.4375 90.3662 45.9209C90.6152 46.4189 90.7471 46.9902 90.7471 47.6201ZM100.781 36.5752C105.249 36.5752 108.867 40.0176 108.867 44.2803C108.867 48.5283 105.249 51.9707 100.781 51.9707C96.2988 51.9707 92.6807 48.5283 92.6807 44.2803C92.6807 40.0176 96.2988 36.5752 100.781 36.5752ZM103.477 43.5186C102.378 39.6807 100.269 36.8975 98.7744 37.3076C97.2656 37.7324 96.958 41.1748 98.0713 45.0273C99.1699 48.8652 101.279 51.6484 102.788 51.2383C104.282 50.8135 104.59 47.3711 103.477 43.5186ZM116.528 58.709H111.079V58.6943L111.006 38.2305C112.061 38.333 115.635 37.9229 116.455 36.6191L116.47 37.8936C117.261 37.0732 118.491 36.6045 119.766 36.6045C122.52 36.6045 127.046 38.7285 127.046 44.2363C127.002 50.7402 121.143 54.4609 116.528 50.1543V58.709ZM118.711 37.2051C117.7 37.2051 116.792 38.2451 116.528 40.3252V49.6416C122.197 54.3145 123.062 37.5713 118.711 37.2051ZM134.473 40.6621V52.0146H129.023L129.038 32.4736C131.807 32.6494 133.608 32.1514 134.473 31.0088V39.8857C134.81 38.8018 135.425 37.9814 136.348 37.4395C137.373 36.8389 138.501 36.5752 139.746 36.6484C140.977 36.7363 142.046 37.1611 142.954 37.9375C143.848 38.7139 144.316 39.8418 144.36 41.3066L144.375 52H138.999L138.984 40.5303C138.94 39.3145 138.574 38.5527 137.9 38.2158C137.212 37.8936 136.509 37.9814 135.776 38.4941C135.146 38.9336 134.707 39.6514 134.473 40.6621ZM147.114 55.9258C147.129 55.999 147.144 56.0576 147.158 56.1162C147.583 57.3027 148.608 57.7861 150.234 57.5811C151.86 57.3906 153.164 56.8047 154.175 55.8525C155.186 54.9004 155.947 53.626 156.475 52C155.288 52.0732 154.307 52.0586 153.516 51.9707H153.501C152.71 51.8828 152.124 51.6484 151.729 51.2529C151.333 50.8574 150.996 50.2568 150.718 49.4365L146.514 36.6191L152.08 36.6045L156.973 50.5791C157.72 48.4844 158.232 46.3457 158.54 44.1631C158.848 41.9951 158.73 40.3105 158.218 39.1094C157.705 37.9082 156.987 37.0732 156.094 36.6045H159.536C159.639 36.6191 159.756 36.6191 159.858 36.6191C160.254 36.6045 160.62 36.6338 160.942 36.7217C161.265 36.8242 161.484 37.0879 161.587 37.5127C161.689 37.9375 161.616 38.6553 161.353 39.6367C158.555 47.5908 156.782 52.5273 156.021 54.417C155.259 56.3066 154.526 57.625 153.823 58.3721C153.12 59.1191 152.256 59.5146 151.23 59.5293C149.868 59.4414 148.828 59.0312 148.096 58.3135C147.349 57.5957 146.909 56.79 146.763 55.8672C146.675 55.3398 146.675 54.8418 146.777 54.3877C146.836 53.8457 147.07 53.377 147.466 52.9814C147.935 52.5127 148.491 52.2783 149.15 52.2783C149.81 52.2783 150.381 52.5127 150.85 52.9814C151.304 53.4502 151.538 54.0215 151.538 54.6807C151.538 55.3398 151.304 55.8965 150.85 56.3652C150.381 56.834 149.81 57.0684 149.15 57.0684C148.491 57.0684 147.935 56.834 147.466 56.3652C147.334 56.2334 147.217 56.0869 147.114 55.9258Z" fill="#E8E8E8"/>
</svg>
