<svg width="11" height="8" viewBox="0 0 11 8" fill="none" xmlns="http://www.w3.org/2000/svg">
<path d="M7.77051 3.48438C8.7373 3.48438 10.3926 4.02637 10.3926 5.74023C10.3926 7.0293 9.45508 7.80566 8.25391 7.80566C6.75977 7.80566 6.0127 6.60449 6.0127 5.22754C6.0127 3.33789 7.36035 1.05273 10.2314 0.701172C8.7959 1.12598 7.77051 2.2832 7.77051 3.48438ZM2.37988 3.48438C3.33203 3.48438 4.9873 4.02637 4.9873 5.74023C4.9873 7.0293 4.06445 7.80566 2.86328 7.80566C1.35449 7.80566 0.607422 6.60449 0.607422 5.22754C0.607422 3.33789 1.95508 1.05273 4.84082 0.701172C3.39062 1.12598 2.37988 2.2832 2.37988 3.48438Z" fill="#E8E8E8"/>
</svg>
