<svg width="216" height="35" viewBox="0 0 216 35" fill="none" xmlns="http://www.w3.org/2000/svg">
<rect width="216" height="35" rx="15" fill="#505050"/>
<path d="M42.4583 20.6667V12.1772L39.75 14.8855L38.2917 13.3751L43.5 8.16675L48.7083 13.3751L47.25 14.8855L44.5417 12.1772V20.6667H42.4583ZM37.25 24.8334C36.6771 24.8334 36.1868 24.6296 35.7792 24.222C35.3715 23.8143 35.1674 23.3237 35.1667 22.7501V19.6251H37.25V22.7501H49.75V19.6251H51.8333V22.7501C51.8333 23.323 51.6295 23.8136 51.2219 24.222C50.8142 24.6303 50.3236 24.8341 49.75 24.8334H37.25Z" fill="white"/>
<path d="M72.58 11.485C72.84 11.485 73.05 11.575 73.21 11.755C73.37 11.925 73.45 12.14 73.45 12.4V17.83C73.45 18.66 73.27 19.395 72.91 20.035C72.56 20.675 72.075 21.175 71.455 21.535C70.835 21.895 70.115 22.075 69.295 22.075C68.475 22.075 67.75 21.895 67.12 21.535C66.5 21.175 66.01 20.675 65.65 20.035C65.3 19.395 65.125 18.66 65.125 17.83V12.4C65.125 12.14 65.215 11.925 65.395 11.755C65.575 11.575 65.805 11.485 66.085 11.485C66.315 11.485 66.52 11.575 66.7 11.755C66.89 11.925 66.985 12.14 66.985 12.4V17.83C66.985 18.33 67.09 18.765 67.3 19.135C67.52 19.495 67.805 19.775 68.155 19.975C68.515 20.175 68.895 20.275 69.295 20.275C69.725 20.275 70.125 20.175 70.495 19.975C70.865 19.775 71.165 19.495 71.395 19.135C71.625 18.765 71.74 18.33 71.74 17.83V12.4C71.74 12.14 71.815 11.925 71.965 11.755C72.115 11.575 72.32 11.485 72.58 11.485ZM79.8562 13.825C80.5562 13.825 81.1812 14.005 81.7312 14.365C82.2912 14.715 82.7312 15.2 83.0512 15.82C83.3812 16.44 83.5462 17.16 83.5462 17.98C83.5462 18.8 83.3812 19.525 83.0512 20.155C82.7312 20.775 82.2962 21.265 81.7462 21.625C81.2062 21.975 80.5962 22.15 79.9162 22.15C79.5162 22.15 79.1412 22.085 78.7912 21.955C78.4412 21.825 78.1312 21.66 77.8612 21.46C77.6012 21.26 77.3962 21.06 77.2462 20.86C77.1062 20.65 77.0362 20.475 77.0362 20.335L77.5012 20.14V24.085C77.5012 24.345 77.4162 24.56 77.2462 24.73C77.0762 24.91 76.8612 25 76.6012 25C76.3412 25 76.1262 24.915 75.9562 24.745C75.7862 24.575 75.7012 24.355 75.7012 24.085V14.89C75.7012 14.63 75.7862 14.415 75.9562 14.245C76.1262 14.065 76.3412 13.975 76.6012 13.975C76.8612 13.975 77.0762 14.065 77.2462 14.245C77.4162 14.415 77.5012 14.63 77.5012 14.89V15.625L77.2462 15.49C77.2462 15.36 77.3162 15.205 77.4562 15.025C77.5962 14.835 77.7862 14.65 78.0262 14.47C78.2662 14.28 78.5412 14.125 78.8512 14.005C79.1712 13.885 79.5062 13.825 79.8562 13.825ZM79.6312 15.475C79.1912 15.475 78.8062 15.585 78.4762 15.805C78.1462 16.025 77.8862 16.325 77.6962 16.705C77.5162 17.075 77.4262 17.5 77.4262 17.98C77.4262 18.45 77.5162 18.88 77.6962 19.27C77.8862 19.65 78.1462 19.95 78.4762 20.17C78.8062 20.39 79.1912 20.5 79.6312 20.5C80.0712 20.5 80.4512 20.39 80.7712 20.17C81.1012 19.95 81.3562 19.65 81.5362 19.27C81.7262 18.88 81.8212 18.45 81.8212 17.98C81.8212 17.5 81.7262 17.075 81.5362 16.705C81.3562 16.325 81.1012 16.025 80.7712 15.805C80.4512 15.585 80.0712 15.475 79.6312 15.475ZM87.2201 21.085C87.2201 21.345 87.1301 21.565 86.9501 21.745C86.7801 21.915 86.5651 22 86.3051 22C86.0551 22 85.8451 21.915 85.6751 21.745C85.5051 21.565 85.4201 21.345 85.4201 21.085V11.815C85.4201 11.555 85.5051 11.34 85.6751 11.17C85.8551 10.99 86.0751 10.9 86.3351 10.9C86.5951 10.9 86.8051 10.99 86.9651 11.17C87.1351 11.34 87.2201 11.555 87.2201 11.815V21.085ZM97.1016 17.995C97.1016 18.815 96.9166 19.54 96.5466 20.17C96.1866 20.79 95.6966 21.275 95.0766 21.625C94.4666 21.975 93.7816 22.15 93.0216 22.15C92.2616 22.15 91.5716 21.975 90.9516 21.625C90.3416 21.275 89.8516 20.79 89.4816 20.17C89.1216 19.54 88.9416 18.815 88.9416 17.995C88.9416 17.175 89.1216 16.455 89.4816 15.835C89.8516 15.205 90.3416 14.715 90.9516 14.365C91.5716 14.005 92.2616 13.825 93.0216 13.825C93.7816 13.825 94.4666 14.005 95.0766 14.365C95.6966 14.715 96.1866 15.205 96.5466 15.835C96.9166 16.455 97.1016 17.175 97.1016 17.995ZM95.3016 17.995C95.3016 17.485 95.1966 17.045 94.9866 16.675C94.7866 16.295 94.5116 16 94.1616 15.79C93.8216 15.58 93.4416 15.475 93.0216 15.475C92.6016 15.475 92.2166 15.58 91.8666 15.79C91.5266 16 91.2516 16.295 91.0416 16.675C90.8416 17.045 90.7416 17.485 90.7416 17.995C90.7416 18.495 90.8416 18.935 91.0416 19.315C91.2516 19.685 91.5266 19.975 91.8666 20.185C92.2166 20.395 92.6016 20.5 93.0216 20.5C93.4416 20.5 93.8216 20.395 94.1616 20.185C94.5116 19.975 94.7866 19.685 94.9866 19.315C95.1966 18.935 95.3016 18.495 95.3016 17.995ZM105.397 13.825C105.657 13.825 105.872 13.91 106.042 14.08C106.212 14.25 106.297 14.47 106.297 14.74V21.085C106.297 21.345 106.212 21.565 106.042 21.745C105.872 21.915 105.657 22 105.397 22C105.137 22 104.922 21.915 104.752 21.745C104.582 21.565 104.497 21.345 104.497 21.085V20.35L104.827 20.485C104.827 20.615 104.757 20.775 104.617 20.965C104.477 21.145 104.287 21.325 104.047 21.505C103.807 21.685 103.522 21.84 103.192 21.97C102.872 22.09 102.522 22.15 102.142 22.15C101.452 22.15 100.827 21.975 100.267 21.625C99.707 21.265 99.262 20.775 98.932 20.155C98.612 19.525 98.452 18.805 98.452 17.995C98.452 17.175 98.612 16.455 98.932 15.835C99.262 15.205 99.702 14.715 100.252 14.365C100.802 14.005 101.412 13.825 102.082 13.825C102.512 13.825 102.907 13.89 103.267 14.02C103.627 14.15 103.937 14.315 104.197 14.515C104.467 14.715 104.672 14.92 104.812 15.13C104.962 15.33 105.037 15.5 105.037 15.64L104.497 15.835V14.74C104.497 14.48 104.582 14.265 104.752 14.095C104.922 13.915 105.137 13.825 105.397 13.825ZM102.367 20.5C102.807 20.5 103.192 20.39 103.522 20.17C103.852 19.95 104.107 19.65 104.287 19.27C104.477 18.89 104.572 18.465 104.572 17.995C104.572 17.515 104.477 17.085 104.287 16.705C104.107 16.325 103.852 16.025 103.522 15.805C103.192 15.585 102.807 15.475 102.367 15.475C101.937 15.475 101.557 15.585 101.227 15.805C100.897 16.025 100.637 16.325 100.447 16.705C100.267 17.085 100.177 17.515 100.177 17.995C100.177 18.465 100.267 18.89 100.447 19.27C100.637 19.65 100.897 19.95 101.227 20.17C101.557 20.39 101.937 20.5 102.367 20.5ZM114.966 10.9C115.226 10.9 115.441 10.985 115.611 11.155C115.781 11.325 115.866 11.545 115.866 11.815V21.085C115.866 21.345 115.781 21.565 115.611 21.745C115.441 21.915 115.226 22 114.966 22C114.706 22 114.491 21.915 114.321 21.745C114.151 21.565 114.066 21.345 114.066 21.085V20.35L114.396 20.485C114.396 20.615 114.326 20.775 114.186 20.965C114.046 21.145 113.856 21.325 113.616 21.505C113.376 21.685 113.091 21.84 112.761 21.97C112.441 22.09 112.091 22.15 111.711 22.15C111.021 22.15 110.396 21.975 109.836 21.625C109.276 21.265 108.831 20.775 108.501 20.155C108.181 19.525 108.021 18.805 108.021 17.995C108.021 17.175 108.181 16.455 108.501 15.835C108.831 15.205 109.271 14.715 109.821 14.365C110.371 14.005 110.981 13.825 111.651 13.825C112.081 13.825 112.476 13.89 112.836 14.02C113.196 14.15 113.506 14.315 113.766 14.515C114.036 14.715 114.241 14.92 114.381 15.13C114.531 15.33 114.606 15.5 114.606 15.64L114.066 15.835V11.815C114.066 11.555 114.151 11.34 114.321 11.17C114.491 10.99 114.706 10.9 114.966 10.9ZM111.936 20.5C112.376 20.5 112.761 20.39 113.091 20.17C113.421 19.95 113.676 19.65 113.856 19.27C114.046 18.89 114.141 18.465 114.141 17.995C114.141 17.515 114.046 17.085 113.856 16.705C113.676 16.325 113.421 16.025 113.091 15.805C112.761 15.585 112.376 15.475 111.936 15.475C111.506 15.475 111.126 15.585 110.796 15.805C110.466 16.025 110.206 16.325 110.016 16.705C109.836 17.085 109.746 17.515 109.746 17.995C109.746 18.465 109.836 18.89 110.016 19.27C110.206 19.65 110.466 19.95 110.796 20.17C111.126 20.39 111.506 20.5 111.936 20.5ZM126.324 13.855L123.084 21.475C123.014 21.665 122.904 21.815 122.754 21.925C122.614 22.025 122.459 22.075 122.289 22.075C122.019 22.075 121.819 22 121.689 21.85C121.559 21.7 121.494 21.515 121.494 21.295C121.494 21.205 121.509 21.11 121.539 21.01L125.274 12.04C125.354 11.84 125.474 11.685 125.634 11.575C125.804 11.465 125.984 11.42 126.174 11.44C126.354 11.44 126.519 11.495 126.669 11.605C126.829 11.705 126.944 11.85 127.014 12.04L130.704 20.83C130.754 20.96 130.779 21.08 130.779 21.19C130.779 21.46 130.689 21.675 130.509 21.835C130.339 21.995 130.149 22.075 129.939 22.075C129.759 22.075 129.594 22.02 129.444 21.91C129.304 21.8 129.194 21.65 129.114 21.46L125.889 13.945L126.324 13.855ZM123.549 19.645L124.374 17.92H128.424L128.709 19.645H123.549ZM137.858 13.975C138.118 13.975 138.333 14.065 138.503 14.245C138.673 14.415 138.758 14.63 138.758 14.89V18.7C138.758 19.76 138.463 20.6 137.873 21.22C137.283 21.84 136.433 22.15 135.323 22.15C134.213 22.15 133.363 21.84 132.773 21.22C132.193 20.6 131.903 19.76 131.903 18.7V14.89C131.903 14.63 131.988 14.415 132.158 14.245C132.328 14.065 132.543 13.975 132.803 13.975C133.063 13.975 133.278 14.065 133.448 14.245C133.618 14.415 133.703 14.63 133.703 14.89V18.7C133.703 19.31 133.838 19.765 134.108 20.065C134.378 20.355 134.783 20.5 135.323 20.5C135.873 20.5 136.283 20.355 136.553 20.065C136.823 19.765 136.958 19.31 136.958 18.7V14.89C136.958 14.63 137.043 14.415 137.213 14.245C137.383 14.065 137.598 13.975 137.858 13.975ZM147.426 10.9C147.686 10.9 147.901 10.985 148.071 11.155C148.241 11.325 148.326 11.545 148.326 11.815V21.085C148.326 21.345 148.241 21.565 148.071 21.745C147.901 21.915 147.686 22 147.426 22C147.166 22 146.951 21.915 146.781 21.745C146.611 21.565 146.526 21.345 146.526 21.085V20.35L146.856 20.485C146.856 20.615 146.786 20.775 146.646 20.965C146.506 21.145 146.316 21.325 146.076 21.505C145.836 21.685 145.551 21.84 145.221 21.97C144.901 22.09 144.551 22.15 144.171 22.15C143.481 22.15 142.856 21.975 142.296 21.625C141.736 21.265 141.291 20.775 140.961 20.155C140.641 19.525 140.481 18.805 140.481 17.995C140.481 17.175 140.641 16.455 140.961 15.835C141.291 15.205 141.731 14.715 142.281 14.365C142.831 14.005 143.441 13.825 144.111 13.825C144.541 13.825 144.936 13.89 145.296 14.02C145.656 14.15 145.966 14.315 146.226 14.515C146.496 14.715 146.701 14.92 146.841 15.13C146.991 15.33 147.066 15.5 147.066 15.64L146.526 15.835V11.815C146.526 11.555 146.611 11.34 146.781 11.17C146.951 10.99 147.166 10.9 147.426 10.9ZM144.396 20.5C144.836 20.5 145.221 20.39 145.551 20.17C145.881 19.95 146.136 19.65 146.316 19.27C146.506 18.89 146.601 18.465 146.601 17.995C146.601 17.515 146.506 17.085 146.316 16.705C146.136 16.325 145.881 16.025 145.551 15.805C145.221 15.585 144.836 15.475 144.396 15.475C143.966 15.475 143.586 15.585 143.256 15.805C142.926 16.025 142.666 16.325 142.476 16.705C142.296 17.085 142.206 17.515 142.206 17.995C142.206 18.465 142.296 18.89 142.476 19.27C142.666 19.65 142.926 19.95 143.256 20.17C143.586 20.39 143.966 20.5 144.396 20.5ZM152.12 21.085C152.12 21.345 152.035 21.565 151.865 21.745C151.695 21.915 151.48 22 151.22 22C150.96 22 150.745 21.915 150.575 21.745C150.405 21.565 150.32 21.345 150.32 21.085V14.89C150.32 14.63 150.405 14.415 150.575 14.245C150.745 14.065 150.96 13.975 151.22 13.975C151.48 13.975 151.695 14.065 151.865 14.245C152.035 14.415 152.12 14.63 152.12 14.89V21.085ZM151.205 13C150.865 13 150.625 12.945 150.485 12.835C150.345 12.725 150.275 12.53 150.275 12.25V11.965C150.275 11.675 150.35 11.48 150.5 11.38C150.66 11.27 150.9 11.215 151.22 11.215C151.57 11.215 151.815 11.27 151.955 11.38C152.095 11.49 152.165 11.685 152.165 11.965V12.25C152.165 12.54 152.09 12.74 151.94 12.85C151.79 12.95 151.545 13 151.205 13ZM161.905 17.995C161.905 18.815 161.72 19.54 161.35 20.17C160.99 20.79 160.5 21.275 159.88 21.625C159.27 21.975 158.585 22.15 157.825 22.15C157.065 22.15 156.375 21.975 155.755 21.625C155.145 21.275 154.655 20.79 154.285 20.17C153.925 19.54 153.745 18.815 153.745 17.995C153.745 17.175 153.925 16.455 154.285 15.835C154.655 15.205 155.145 14.715 155.755 14.365C156.375 14.005 157.065 13.825 157.825 13.825C158.585 13.825 159.27 14.005 159.88 14.365C160.5 14.715 160.99 15.205 161.35 15.835C161.72 16.455 161.905 17.175 161.905 17.995ZM160.105 17.995C160.105 17.485 160 17.045 159.79 16.675C159.59 16.295 159.315 16 158.965 15.79C158.625 15.58 158.245 15.475 157.825 15.475C157.405 15.475 157.02 15.58 156.67 15.79C156.33 16 156.055 16.295 155.845 16.675C155.645 17.045 155.545 17.485 155.545 17.995C155.545 18.495 155.645 18.935 155.845 19.315C156.055 19.685 156.33 19.975 156.67 20.185C157.02 20.395 157.405 20.5 157.825 20.5C158.245 20.5 158.625 20.395 158.965 20.185C159.315 19.975 159.59 19.685 159.79 19.315C160 18.935 160.105 18.495 160.105 17.995Z" fill="white"/>
</svg>
