<svg width="20" height="20" viewBox="0 0 20 20" fill="none" xmlns="http://www.w3.org/2000/svg">
<path d="M17.5 16.2475C17.5 16.4767 17.4369 16.7016 17.3177 16.8974C17.1985 17.0932 17.0278 17.2525 16.8242 17.3578C16.6205 17.4631 16.3919 17.5104 16.1632 17.4944C15.9345 17.4785 15.7146 17.4 15.5275 17.2675L6.7775 11.0637C6.61496 10.9488 6.48222 10.7967 6.39033 10.6201C6.29844 10.4436 6.25005 10.2476 6.2492 10.0485C6.24834 9.84944 6.29504 9.65304 6.38541 9.47567C6.47578 9.2983 6.60721 9.14507 6.76875 9.02875L15.5187 2.7325C15.7054 2.59786 15.9256 2.51736 16.1551 2.4999C16.3846 2.48243 16.6145 2.52866 16.8194 2.6335C17.0243 2.73834 17.1963 2.89771 17.3163 3.09406C17.4364 3.2904 17.5 3.51609 17.5 3.74625V16.2475ZM2.5 16.875C2.5 17.0408 2.56585 17.1997 2.68306 17.3169C2.80027 17.4342 2.95924 17.5 3.125 17.5C3.29076 17.5 3.44973 17.4342 3.56694 17.3169C3.68415 17.1997 3.75 17.0408 3.75 16.875L3.75 3.125C3.75 2.95924 3.68415 2.80027 3.56694 2.68306C3.44973 2.56585 3.29076 2.5 3.125 2.5C2.95924 2.5 2.80027 2.56585 2.68306 2.68306C2.56585 2.80027 2.5 2.95924 2.5 3.125L2.5 16.875Z" fill="white"/>
</svg>
