<svg width="90" height="34" viewBox="0 0 90 34" fill="none" xmlns="http://www.w3.org/2000/svg">
<rect width="90" height="34" rx="15" fill="#505050"/>
<path d="M32.475 12.01C32.735 12.14 32.885 12.345 32.925 12.625C32.975 12.905 32.905 13.16 32.715 13.39C32.585 13.57 32.415 13.67 32.205 13.69C32.005 13.71 31.8 13.67 31.59 13.57C31.35 13.46 31.095 13.375 30.825 13.315C30.565 13.255 30.29 13.225 30 13.225C29.46 13.225 28.975 13.31 28.545 13.48C28.125 13.65 27.765 13.895 27.465 14.215C27.165 14.525 26.935 14.895 26.775 15.325C26.625 15.755 26.55 16.23 26.55 16.75C26.55 17.36 26.635 17.89 26.805 18.34C26.985 18.79 27.23 19.165 27.54 19.465C27.85 19.765 28.215 19.99 28.635 20.14C29.055 20.28 29.51 20.35 30 20.35C30.27 20.35 30.54 20.325 30.81 20.275C31.08 20.225 31.34 20.135 31.59 20.005C31.8 19.905 32.005 19.87 32.205 19.9C32.415 19.93 32.59 20.035 32.73 20.215C32.93 20.465 33 20.725 32.94 20.995C32.89 21.255 32.74 21.445 32.49 21.565C32.23 21.695 31.96 21.805 31.68 21.895C31.41 21.975 31.135 22.035 30.855 22.075C30.575 22.125 30.29 22.15 30 22.15C29.28 22.15 28.595 22.035 27.945 21.805C27.305 21.575 26.73 21.235 26.22 20.785C25.72 20.335 25.325 19.775 25.035 19.105C24.745 18.425 24.6 17.64 24.6 16.75C24.6 15.98 24.73 15.27 24.99 14.62C25.26 13.97 25.635 13.41 26.115 12.94C26.605 12.46 27.18 12.09 27.84 11.83C28.5 11.56 29.22 11.425 30 11.425C30.44 11.425 30.87 11.475 31.29 11.575C31.71 11.675 32.105 11.82 32.475 12.01ZM36.4793 21.085C36.4793 21.345 36.3893 21.565 36.2093 21.745C36.0393 21.915 35.8243 22 35.5643 22C35.3143 22 35.1043 21.915 34.9343 21.745C34.7643 21.565 34.6793 21.345 34.6793 21.085V11.815C34.6793 11.555 34.7643 11.34 34.9343 11.17C35.1143 10.99 35.3343 10.9 35.5943 10.9C35.8543 10.9 36.0643 10.99 36.2243 11.17C36.3943 11.34 36.4793 11.555 36.4793 11.815V21.085ZM42.3558 22.15C41.5058 22.15 40.7658 21.975 40.1358 21.625C39.5158 21.265 39.0358 20.78 38.6958 20.17C38.3658 19.56 38.2008 18.87 38.2008 18.1C38.2008 17.2 38.3808 16.435 38.7408 15.805C39.1108 15.165 39.5908 14.675 40.1808 14.335C40.7708 13.995 41.3958 13.825 42.0558 13.825C42.5658 13.825 43.0458 13.93 43.4958 14.14C43.9558 14.35 44.3608 14.64 44.7108 15.01C45.0608 15.37 45.3358 15.79 45.5358 16.27C45.7458 16.75 45.8508 17.26 45.8508 17.8C45.8408 18.04 45.7458 18.235 45.5658 18.385C45.3858 18.535 45.1758 18.61 44.9358 18.61H39.2058L38.7558 17.11H44.2608L43.9308 17.41V17.005C43.9108 16.715 43.8058 16.455 43.6158 16.225C43.4358 15.995 43.2058 15.815 42.9258 15.685C42.6558 15.545 42.3658 15.475 42.0558 15.475C41.7558 15.475 41.4758 15.515 41.2158 15.595C40.9558 15.675 40.7308 15.81 40.5408 16C40.3508 16.19 40.2008 16.445 40.0908 16.765C39.9808 17.085 39.9258 17.49 39.9258 17.98C39.9258 18.52 40.0358 18.98 40.2558 19.36C40.4858 19.73 40.7758 20.015 41.1258 20.215C41.4858 20.405 41.8658 20.5 42.2658 20.5C42.6358 20.5 42.9308 20.47 43.1508 20.41C43.3708 20.35 43.5458 20.28 43.6758 20.2C43.8158 20.11 43.9408 20.035 44.0508 19.975C44.2308 19.885 44.4008 19.84 44.5608 19.84C44.7808 19.84 44.9608 19.915 45.1008 20.065C45.2508 20.215 45.3258 20.39 45.3258 20.59C45.3258 20.86 45.1858 21.105 44.9058 21.325C44.6458 21.545 44.2808 21.74 43.8108 21.91C43.3408 22.07 42.8558 22.15 42.3558 22.15ZM54.202 13.825C54.462 13.825 54.677 13.91 54.847 14.08C55.017 14.25 55.102 14.47 55.102 14.74V21.085C55.102 21.345 55.017 21.565 54.847 21.745C54.677 21.915 54.462 22 54.202 22C53.942 22 53.727 21.915 53.557 21.745C53.387 21.565 53.302 21.345 53.302 21.085V20.35L53.632 20.485C53.632 20.615 53.562 20.775 53.422 20.965C53.282 21.145 53.092 21.325 52.852 21.505C52.612 21.685 52.327 21.84 51.997 21.97C51.677 22.09 51.327 22.15 50.947 22.15C50.257 22.15 49.632 21.975 49.072 21.625C48.512 21.265 48.067 20.775 47.737 20.155C47.417 19.525 47.257 18.805 47.257 17.995C47.257 17.175 47.417 16.455 47.737 15.835C48.067 15.205 48.507 14.715 49.057 14.365C49.607 14.005 50.217 13.825 50.887 13.825C51.317 13.825 51.712 13.89 52.072 14.02C52.432 14.15 52.742 14.315 53.002 14.515C53.272 14.715 53.477 14.92 53.617 15.13C53.767 15.33 53.842 15.5 53.842 15.64L53.302 15.835V14.74C53.302 14.48 53.387 14.265 53.557 14.095C53.727 13.915 53.942 13.825 54.202 13.825ZM51.172 20.5C51.612 20.5 51.997 20.39 52.327 20.17C52.657 19.95 52.912 19.65 53.092 19.27C53.282 18.89 53.377 18.465 53.377 17.995C53.377 17.515 53.282 17.085 53.092 16.705C52.912 16.325 52.657 16.025 52.327 15.805C51.997 15.585 51.612 15.475 51.172 15.475C50.742 15.475 50.362 15.585 50.032 15.805C49.702 16.025 49.442 16.325 49.252 16.705C49.072 17.085 48.982 17.515 48.982 17.995C48.982 18.465 49.072 18.89 49.252 19.27C49.442 19.65 49.702 19.95 50.032 20.17C50.362 20.39 50.742 20.5 51.172 20.5ZM58.101 22C57.841 22 57.626 21.915 57.456 21.745C57.286 21.565 57.201 21.345 57.201 21.085V14.89C57.201 14.63 57.286 14.415 57.456 14.245C57.626 14.065 57.841 13.975 58.101 13.975C58.361 13.975 58.576 14.065 58.746 14.245C58.916 14.415 59.001 14.63 59.001 14.89V16.3L58.896 15.295C59.006 15.055 59.146 14.845 59.316 14.665C59.496 14.475 59.696 14.32 59.916 14.2C60.136 14.07 60.371 13.975 60.621 13.915C60.871 13.855 61.121 13.825 61.371 13.825C61.671 13.825 61.921 13.91 62.121 14.08C62.331 14.25 62.436 14.45 62.436 14.68C62.436 15.01 62.351 15.25 62.181 15.4C62.011 15.54 61.826 15.61 61.626 15.61C61.436 15.61 61.261 15.575 61.101 15.505C60.951 15.435 60.776 15.4 60.576 15.4C60.396 15.4 60.211 15.445 60.021 15.535C59.841 15.615 59.671 15.745 59.511 15.925C59.361 16.105 59.236 16.33 59.136 16.6C59.046 16.86 59.001 17.17 59.001 17.53V21.085C59.001 21.345 58.916 21.565 58.746 21.745C58.576 21.915 58.361 22 58.101 22Z" fill="white"/>
</svg>
