<svg width="20" height="20" viewBox="0 0 20 20" fill="none" xmlns="http://www.w3.org/2000/svg">
<path d="M2.5 3.7525C2.50001 3.52325 2.56306 3.29843 2.68226 3.10261C2.80145 2.90678 2.97221 2.74751 3.17584 2.64221C3.37947 2.53691 3.60813 2.48964 3.83683 2.50556C4.06552 2.52149 4.28543 2.6 4.4725 2.7325L13.2225 8.93625C13.385 9.05118 13.5178 9.20327 13.6097 9.37986C13.7016 9.55645 13.7499 9.75243 13.7508 9.9515C13.7517 10.1506 13.705 10.347 13.6146 10.5243C13.5242 10.7017 13.3928 10.8549 13.2312 10.9713L4.48125 17.2675C4.29458 17.4021 4.07437 17.4826 3.84487 17.5001C3.61537 17.5176 3.38551 17.4713 3.18062 17.3665C2.97572 17.2617 2.80375 17.1023 2.68366 16.9059C2.56356 16.7096 2.50001 16.4839 2.5 16.2538V3.7525ZM17.5 3.125C17.5 2.95924 17.4342 2.80027 17.3169 2.68306C17.1997 2.56585 17.0408 2.5 16.875 2.5C16.7092 2.5 16.5503 2.56585 16.4331 2.68306C16.3158 2.80027 16.25 2.95924 16.25 3.125V16.875C16.25 17.0408 16.3158 17.1997 16.4331 17.3169C16.5503 17.4342 16.7092 17.5 16.875 17.5C17.0408 17.5 17.1997 17.4342 17.3169 17.3169C17.4342 17.1997 17.5 17.0408 17.5 16.875V3.125Z" fill="white"/>
</svg>
