<svg width="212" height="34" viewBox="0 0 212 34" fill="none" xmlns="http://www.w3.org/2000/svg">
<rect width="212" height="34" rx="15" fill="#7AD778"/>
<path d="M76.075 22.15C75.315 22.15 74.605 22.01 73.945 21.73C73.285 21.45 72.705 21.065 72.205 20.575C71.705 20.075 71.31 19.5 71.02 18.85C70.74 18.2 70.6 17.5 70.6 16.75C70.6 16 70.74 15.3 71.02 14.65C71.31 14 71.705 13.43 72.205 12.94C72.705 12.44 73.285 12.05 73.945 11.77C74.605 11.49 75.315 11.35 76.075 11.35C76.545 11.35 77 11.4 77.44 11.5C77.88 11.6 78.285 11.75 78.655 11.95C78.805 12.03 78.915 12.14 78.985 12.28C79.065 12.41 79.105 12.545 79.105 12.685C79.105 12.925 79.025 13.14 78.865 13.33C78.705 13.52 78.5 13.615 78.25 13.615C78.17 13.615 78.085 13.605 77.995 13.585C77.915 13.565 77.835 13.535 77.755 13.495C77.505 13.385 77.24 13.3 76.96 13.24C76.68 13.18 76.385 13.15 76.075 13.15C75.425 13.15 74.83 13.315 74.29 13.645C73.76 13.965 73.335 14.4 73.015 14.95C72.705 15.49 72.55 16.09 72.55 16.75C72.55 17.4 72.705 18 73.015 18.55C73.335 19.1 73.76 19.54 74.29 19.87C74.83 20.19 75.425 20.35 76.075 20.35C76.375 20.35 76.705 20.32 77.065 20.26C77.425 20.2 77.72 20.12 77.95 20.02L77.815 20.47V17.905L78.07 18.13H76.405C76.145 18.13 75.925 18.045 75.745 17.875C75.575 17.705 75.49 17.49 75.49 17.23C75.49 16.97 75.575 16.755 75.745 16.585C75.925 16.415 76.145 16.33 76.405 16.33H78.865C79.125 16.33 79.34 16.42 79.51 16.6C79.68 16.77 79.765 16.985 79.765 17.245V20.425C79.765 20.625 79.715 20.79 79.615 20.92C79.525 21.05 79.42 21.155 79.3 21.235C78.84 21.515 78.335 21.74 77.785 21.91C77.245 22.07 76.675 22.15 76.075 22.15ZM85.3493 22.15C84.4993 22.15 83.7593 21.975 83.1293 21.625C82.5093 21.265 82.0293 20.78 81.6893 20.17C81.3593 19.56 81.1943 18.87 81.1943 18.1C81.1943 17.2 81.3743 16.435 81.7343 15.805C82.1043 15.165 82.5843 14.675 83.1743 14.335C83.7643 13.995 84.3893 13.825 85.0493 13.825C85.5593 13.825 86.0393 13.93 86.4893 14.14C86.9493 14.35 87.3543 14.64 87.7043 15.01C88.0543 15.37 88.3293 15.79 88.5293 16.27C88.7393 16.75 88.8443 17.26 88.8443 17.8C88.8343 18.04 88.7393 18.235 88.5593 18.385C88.3793 18.535 88.1693 18.61 87.9293 18.61H82.1993L81.7493 17.11H87.2543L86.9243 17.41V17.005C86.9043 16.715 86.7993 16.455 86.6093 16.225C86.4293 15.995 86.1993 15.815 85.9193 15.685C85.6493 15.545 85.3593 15.475 85.0493 15.475C84.7493 15.475 84.4693 15.515 84.2093 15.595C83.9493 15.675 83.7243 15.81 83.5343 16C83.3443 16.19 83.1943 16.445 83.0843 16.765C82.9743 17.085 82.9193 17.49 82.9193 17.98C82.9193 18.52 83.0293 18.98 83.2493 19.36C83.4793 19.73 83.7693 20.015 84.1193 20.215C84.4793 20.405 84.8593 20.5 85.2593 20.5C85.6293 20.5 85.9243 20.47 86.1443 20.41C86.3643 20.35 86.5393 20.28 86.6693 20.2C86.8093 20.11 86.9343 20.035 87.0443 19.975C87.2243 19.885 87.3943 19.84 87.5543 19.84C87.7743 19.84 87.9543 19.915 88.0943 20.065C88.2443 20.215 88.3193 20.39 88.3193 20.59C88.3193 20.86 88.1793 21.105 87.8993 21.325C87.6393 21.545 87.2743 21.74 86.8043 21.91C86.3343 22.07 85.8493 22.15 85.3493 22.15ZM94.857 13.825C95.597 13.825 96.157 13.98 96.537 14.29C96.927 14.6 97.192 15.015 97.332 15.535C97.482 16.045 97.557 16.615 97.557 17.245V21.085C97.557 21.345 97.472 21.565 97.302 21.745C97.132 21.915 96.917 22 96.657 22C96.397 22 96.182 21.915 96.012 21.745C95.842 21.565 95.757 21.345 95.757 21.085V17.245C95.757 16.915 95.712 16.62 95.622 16.36C95.542 16.09 95.392 15.875 95.172 15.715C94.952 15.555 94.637 15.475 94.227 15.475C93.827 15.475 93.487 15.555 93.207 15.715C92.937 15.875 92.727 16.09 92.577 16.36C92.437 16.62 92.367 16.915 92.367 17.245V21.085C92.367 21.345 92.282 21.565 92.112 21.745C91.942 21.915 91.727 22 91.467 22C91.207 22 90.992 21.915 90.822 21.745C90.652 21.565 90.567 21.345 90.567 21.085V14.89C90.567 14.63 90.652 14.415 90.822 14.245C90.992 14.065 91.207 13.975 91.467 13.975C91.727 13.975 91.942 14.065 92.112 14.245C92.282 14.415 92.367 14.63 92.367 14.89V15.535L92.142 15.49C92.232 15.32 92.362 15.14 92.532 14.95C92.702 14.75 92.902 14.565 93.132 14.395C93.362 14.225 93.622 14.09 93.912 13.99C94.202 13.88 94.517 13.825 94.857 13.825ZM103.433 22.15C102.583 22.15 101.843 21.975 101.213 21.625C100.593 21.265 100.113 20.78 99.7725 20.17C99.4425 19.56 99.2775 18.87 99.2775 18.1C99.2775 17.2 99.4575 16.435 99.8175 15.805C100.188 15.165 100.668 14.675 101.258 14.335C101.848 13.995 102.473 13.825 103.133 13.825C103.643 13.825 104.123 13.93 104.573 14.14C105.033 14.35 105.438 14.64 105.788 15.01C106.138 15.37 106.413 15.79 106.613 16.27C106.823 16.75 106.928 17.26 106.928 17.8C106.918 18.04 106.823 18.235 106.643 18.385C106.463 18.535 106.253 18.61 106.013 18.61H100.283L99.8325 17.11H105.338L105.008 17.41V17.005C104.988 16.715 104.883 16.455 104.693 16.225C104.513 15.995 104.283 15.815 104.003 15.685C103.733 15.545 103.443 15.475 103.133 15.475C102.833 15.475 102.553 15.515 102.293 15.595C102.033 15.675 101.808 15.81 101.618 16C101.428 16.19 101.278 16.445 101.168 16.765C101.058 17.085 101.003 17.49 101.003 17.98C101.003 18.52 101.113 18.98 101.333 19.36C101.563 19.73 101.853 20.015 102.203 20.215C102.563 20.405 102.943 20.5 103.343 20.5C103.713 20.5 104.008 20.47 104.228 20.41C104.448 20.35 104.623 20.28 104.753 20.2C104.893 20.11 105.018 20.035 105.128 19.975C105.308 19.885 105.478 19.84 105.638 19.84C105.858 19.84 106.038 19.915 106.178 20.065C106.328 20.215 106.403 20.39 106.403 20.59C106.403 20.86 106.263 21.105 105.983 21.325C105.723 21.545 105.358 21.74 104.888 21.91C104.418 22.07 103.933 22.15 103.433 22.15ZM109.55 22C109.29 22 109.075 21.915 108.905 21.745C108.735 21.565 108.65 21.345 108.65 21.085V14.89C108.65 14.63 108.735 14.415 108.905 14.245C109.075 14.065 109.29 13.975 109.55 13.975C109.81 13.975 110.025 14.065 110.195 14.245C110.365 14.415 110.45 14.63 110.45 14.89V16.3L110.345 15.295C110.455 15.055 110.595 14.845 110.765 14.665C110.945 14.475 111.145 14.32 111.365 14.2C111.585 14.07 111.82 13.975 112.07 13.915C112.32 13.855 112.57 13.825 112.82 13.825C113.12 13.825 113.37 13.91 113.57 14.08C113.78 14.25 113.885 14.45 113.885 14.68C113.885 15.01 113.8 15.25 113.63 15.4C113.46 15.54 113.275 15.61 113.075 15.61C112.885 15.61 112.71 15.575 112.55 15.505C112.4 15.435 112.225 15.4 112.025 15.4C111.845 15.4 111.66 15.445 111.47 15.535C111.29 15.615 111.12 15.745 110.96 15.925C110.81 16.105 110.685 16.33 110.585 16.6C110.495 16.86 110.45 17.17 110.45 17.53V21.085C110.45 21.345 110.365 21.565 110.195 21.745C110.025 21.915 109.81 22 109.55 22ZM121.698 13.825C121.958 13.825 122.173 13.91 122.343 14.08C122.513 14.25 122.598 14.47 122.598 14.74V21.085C122.598 21.345 122.513 21.565 122.343 21.745C122.173 21.915 121.958 22 121.698 22C121.438 22 121.223 21.915 121.053 21.745C120.883 21.565 120.798 21.345 120.798 21.085V20.35L121.128 20.485C121.128 20.615 121.058 20.775 120.918 20.965C120.778 21.145 120.588 21.325 120.348 21.505C120.108 21.685 119.823 21.84 119.493 21.97C119.173 22.09 118.823 22.15 118.443 22.15C117.753 22.15 117.128 21.975 116.568 21.625C116.008 21.265 115.563 20.775 115.233 20.155C114.913 19.525 114.753 18.805 114.753 17.995C114.753 17.175 114.913 16.455 115.233 15.835C115.563 15.205 116.003 14.715 116.553 14.365C117.103 14.005 117.713 13.825 118.383 13.825C118.813 13.825 119.208 13.89 119.568 14.02C119.928 14.15 120.238 14.315 120.498 14.515C120.768 14.715 120.973 14.92 121.113 15.13C121.263 15.33 121.338 15.5 121.338 15.64L120.798 15.835V14.74C120.798 14.48 120.883 14.265 121.053 14.095C121.223 13.915 121.438 13.825 121.698 13.825ZM118.668 20.5C119.108 20.5 119.493 20.39 119.823 20.17C120.153 19.95 120.408 19.65 120.588 19.27C120.778 18.89 120.873 18.465 120.873 17.995C120.873 17.515 120.778 17.085 120.588 16.705C120.408 16.325 120.153 16.025 119.823 15.805C119.493 15.585 119.108 15.475 118.668 15.475C118.238 15.475 117.858 15.585 117.528 15.805C117.198 16.025 116.938 16.325 116.748 16.705C116.568 17.085 116.478 17.515 116.478 17.995C116.478 18.465 116.568 18.89 116.748 19.27C116.938 19.65 117.198 19.95 117.528 20.17C117.858 20.39 118.238 20.5 118.668 20.5ZM124.787 14.125H128.342C128.582 14.125 128.782 14.205 128.942 14.365C129.102 14.525 129.182 14.725 129.182 14.965C129.182 15.195 129.102 15.39 128.942 15.55C128.782 15.7 128.582 15.775 128.342 15.775H124.787C124.547 15.775 124.347 15.695 124.187 15.535C124.027 15.375 123.947 15.175 123.947 14.935C123.947 14.705 124.027 14.515 124.187 14.365C124.347 14.205 124.547 14.125 124.787 14.125ZM126.392 12.25C126.652 12.25 126.862 12.34 127.022 12.52C127.192 12.69 127.277 12.905 127.277 13.165V19.84C127.277 19.98 127.302 20.095 127.352 20.185C127.412 20.275 127.487 20.34 127.577 20.38C127.677 20.42 127.782 20.44 127.892 20.44C128.012 20.44 128.122 20.42 128.222 20.38C128.322 20.33 128.437 20.305 128.567 20.305C128.707 20.305 128.832 20.37 128.942 20.5C129.062 20.63 129.122 20.81 129.122 21.04C129.122 21.32 128.967 21.55 128.657 21.73C128.357 21.91 128.032 22 127.682 22C127.472 22 127.237 21.985 126.977 21.955C126.727 21.915 126.487 21.83 126.257 21.7C126.037 21.56 125.852 21.35 125.702 21.07C125.552 20.79 125.477 20.405 125.477 19.915V13.165C125.477 12.905 125.562 12.69 125.732 12.52C125.912 12.34 126.132 12.25 126.392 12.25ZM134.692 22.15C133.842 22.15 133.102 21.975 132.472 21.625C131.852 21.265 131.372 20.78 131.032 20.17C130.702 19.56 130.537 18.87 130.537 18.1C130.537 17.2 130.717 16.435 131.077 15.805C131.447 15.165 131.927 14.675 132.517 14.335C133.107 13.995 133.732 13.825 134.392 13.825C134.902 13.825 135.382 13.93 135.832 14.14C136.292 14.35 136.697 14.64 137.047 15.01C137.397 15.37 137.672 15.79 137.872 16.27C138.082 16.75 138.187 17.26 138.187 17.8C138.177 18.04 138.082 18.235 137.902 18.385C137.722 18.535 137.512 18.61 137.272 18.61H131.542L131.092 17.11H136.597L136.267 17.41V17.005C136.247 16.715 136.142 16.455 135.952 16.225C135.772 15.995 135.542 15.815 135.262 15.685C134.992 15.545 134.702 15.475 134.392 15.475C134.092 15.475 133.812 15.515 133.552 15.595C133.292 15.675 133.067 15.81 132.877 16C132.687 16.19 132.537 16.445 132.427 16.765C132.317 17.085 132.262 17.49 132.262 17.98C132.262 18.52 132.372 18.98 132.592 19.36C132.822 19.73 133.112 20.015 133.462 20.215C133.822 20.405 134.202 20.5 134.602 20.5C134.972 20.5 135.267 20.47 135.487 20.41C135.707 20.35 135.882 20.28 136.012 20.2C136.152 20.11 136.277 20.035 136.387 19.975C136.567 19.885 136.737 19.84 136.897 19.84C137.117 19.84 137.297 19.915 137.437 20.065C137.587 20.215 137.662 20.39 137.662 20.59C137.662 20.86 137.522 21.105 137.242 21.325C136.982 21.545 136.617 21.74 136.147 21.91C135.677 22.07 135.192 22.15 134.692 22.15Z" fill="white"/>
</svg>
