<svg width="121" height="36" viewBox="0 0 121 36" fill="none" xmlns="http://www.w3.org/2000/svg">
<path d="M97.2447 0.21994H106.214V35.1684L97.2202 35.2662L97.2447 0.21994ZM97.2447 34.8263C102.988 35.1196 107.925 34.7285 112.055 33.6532C116.185 32.5778 119.167 31.7469 121 31.1359L120.975 35.1196C119.827 35.0951 118.018 35.0707 115.55 35.0951C113.081 35.0951 110.466 35.1196 107.729 35.144C104.992 35.1684 102.621 35.2173 100.642 35.2418C98.6377 35.2662 97.6601 35.2662 97.6601 35.2662L97.2447 34.8263Z" fill="#E8E8E8"/>
<path d="M63.9093 17.743C63.8848 14.5659 64.618 11.5354 66.1577 8.70037C67.673 5.86539 69.8236 3.64139 72.5609 2.05283C75.2981 0.439819 78.4997 -0.122289 82.1412 0.39094C84.7073 0.733093 87.9822 1.173 92.0147 1.73511L91.7214 10.6067C86.247 2.07727 81.0658 -0.953233 76.2512 1.49072C73.5873 2.81045 72.3409 6.20754 72.5609 11.7309C72.7808 17.2542 74.1739 21.6044 76.7889 24.8304C79.4039 28.0565 82.41 29.474 85.8071 29.1074C89.2042 28.7408 92.1125 26.7123 94.5809 22.9975C93.6277 27.1522 91.8192 30.2071 89.1797 32.2112C86.5403 34.1908 83.5831 35.2172 80.2838 35.2417C75.5914 35.2417 71.7299 33.702 68.6994 30.5982C65.6689 27.5188 64.0559 23.2174 63.9093 17.743Z" fill="#E8E8E8"/>
<path d="M58.6059 0.317698C60.7077 0.342138 62.3452 0.317698 63.4938 0.293259L63.5427 4.30134C61.6853 3.71479 59.0458 2.85941 55.6732 1.78407C53.8158 1.29528 52.2272 1.02644 50.883 0.977565V35.6572H41.7426L41.7671 1.002C40.4229 1.05088 38.8343 1.31972 37.0014 1.80851C33.6043 2.88385 30.9893 3.73923 29.1074 4.32578L29.1563 0.317698C30.3294 0.342138 31.9424 0.366577 34.0442 0.342138C36.146 0.342138 40.2274 0.342138 46.3373 0.317698C52.4227 0.317698 56.5041 0.317698 58.6059 0.317698Z" fill="#E8E8E8"/>
<path d="M27.69 25.246C26.6391 31.136 21.7023 35.2907 14.0283 35.3396C9.72692 35.2174 2.1018 34.3375 0 33.0422L0.0733185 26.9324C2.76166 28.5698 11.902 33.2133 15.8612 34.1176C20.4559 35.144 22.7776 31.3559 21.1646 29.3274C15.1769 22.0445 0.0244395 21.0913 0.0244395 9.2626C0.0244395 3.05496 6.01212 2.3138e-05 12.7085 2.3138e-05C15.1281 2.3138e-05 21.4579 -0.0244163 25.4904 1.51527L25.2949 7.69847C23.7308 6.64757 16.7655 0.586571 9.16481 0.928724C7.45405 1.12424 5.9388 2.44397 6.45203 4.32582C9.7758 13.6861 29.3518 15.9101 27.69 25.246Z" fill="#E8E8E8"/>
</svg>
