<svg width="11" height="11" viewBox="0 0 11 11" fill="none" xmlns="http://www.w3.org/2000/svg">
<path d="M8.8369 8.35049C8.86884 8.38243 8.89417 8.42035 8.91146 8.46208C8.92874 8.50381 8.93764 8.54853 8.93764 8.5937C8.93764 8.63886 8.92874 8.68359 8.91146 8.72532C8.89417 8.76705 8.86884 8.80496 8.8369 8.8369C8.80496 8.86884 8.76705 8.89417 8.72532 8.91146C8.68359 8.92874 8.63886 8.93764 8.5937 8.93764C8.54853 8.93764 8.50381 8.92874 8.46208 8.91146C8.42035 8.89417 8.38243 8.86884 8.35049 8.8369L5.49995 5.98592L2.6494 8.8369C2.5849 8.9014 2.49742 8.93764 2.4062 8.93764C2.31498 8.93764 2.2275 8.9014 2.16299 8.8369C2.09849 8.7724 2.06226 8.68492 2.06226 8.5937C2.06226 8.50248 2.09849 8.415 2.16299 8.35049L5.01397 5.49995L2.16299 2.6494C2.09849 2.5849 2.06226 2.49742 2.06226 2.4062C2.06226 2.31498 2.09849 2.2275 2.16299 2.16299C2.2275 2.09849 2.31498 2.06226 2.4062 2.06226C2.49742 2.06226 2.5849 2.09849 2.6494 2.16299L5.49995 5.01397L8.35049 2.16299C8.415 2.09849 8.50248 2.06226 8.5937 2.06226C8.68492 2.06226 8.7724 2.09849 8.8369 2.16299C8.9014 2.2275 8.93764 2.31498 8.93764 2.4062C8.93764 2.49742 8.9014 2.5849 8.8369 2.6494L5.98592 5.49995L8.8369 8.35049Z" fill="white"/>
</svg>
