<svg width="30" height="30" viewBox="0 0 30 30" fill="none" xmlns="http://www.w3.org/2000/svg">
<path d="M11.25 6.25H8.75C8.05964 6.25 7.5 6.80964 7.5 7.5V22.5C7.5 23.1904 8.05964 23.75 8.75 23.75H11.25C11.9404 23.75 12.5 23.1904 12.5 22.5V7.5C12.5 6.80964 11.9404 6.25 11.25 6.25Z" fill="white"/>
<path d="M21.25 6.25H18.75C18.0596 6.25 17.5 6.80964 17.5 7.5V22.5C17.5 23.1904 18.0596 23.75 18.75 23.75H21.25C21.9404 23.75 22.5 23.1904 22.5 22.5V7.5C22.5 6.80964 21.9404 6.25 21.25 6.25Z" fill="white"/>
</svg>
