<svg width="11" height="7" viewBox="0 0 11 7" fill="none" xmlns="http://www.w3.org/2000/svg">
<path id="Vector" opacity="0.3" d="M8.05239 2.74227C9.13922 2.74227 11 3.27629 11 4.96495C11 6.23505 9.94611 7 8.59581 7C6.91617 7 6.07635 5.81649 6.07635 4.45979C6.07635 2.59794 7.59132 0.346392 10.8189 0C9.20509 0.418557 8.05239 1.55876 8.05239 2.74227ZM1.99251 2.74227C3.06287 2.74227 4.92365 3.27629 4.92365 4.96495C4.92365 6.23505 3.88623 7 2.53593 7C0.83982 7 0 5.81649 0 4.45979C0 2.59794 1.51497 0.346392 4.75898 0C3.12874 0.418557 1.99251 1.55876 1.99251 2.74227Z" fill="#E8E8E8"/>
</svg>
