<svg width="11" height="7" viewBox="0 0 11 7" fill="none" xmlns="http://www.w3.org/2000/svg">
<path id="Vector" opacity="0.3" d="M2.93114 4.25773C1.86078 4.25773 0 3.72371 0 2.03505C0 0.764948 1.03743 0 2.38772 0C4.08383 0 4.92365 1.18351 4.92365 2.54021C4.92365 4.40206 3.40868 6.65361 0.164671 7C1.79491 6.59588 2.93114 5.44124 2.93114 4.25773ZM9.00749 4.25773C7.92066 4.25773 6.07635 3.72371 6.07635 2.03505C6.07635 0.764948 7.11377 0 8.46407 0C10.1437 0 11 1.18351 11 2.54021C11 4.40206 9.46856 6.65361 6.24102 7C7.85479 6.59588 9.00749 5.44124 9.00749 4.25773Z" fill="#E8E8E8"/>
</svg>
