<svg width="61" height="24" viewBox="0 0 61 24" fill="none" xmlns="http://www.w3.org/2000/svg">
<path d="M9.33105 11.4971C9.25781 11.7461 9.09668 11.9951 8.8623 12.2148C8.61328 12.4492 8.33496 12.6982 8.0127 12.9473C7.4707 13.3428 6.94336 13.8408 6.45996 14.4121C5.97656 14.998 5.68359 15.7451 5.61035 16.668C5.5957 17.6348 5.80078 18.4111 6.22559 18.9824C6.63574 19.5684 7.13379 19.876 7.71973 19.9053C8.30566 19.9346 8.84766 19.5977 9.3457 18.9092L9.33105 11.4971ZM2.63672 9.09473C2.7832 8.68457 3.07617 8.27441 3.51562 7.86426C4.08691 7.32227 4.80469 6.9707 5.69824 6.80957C6.57715 6.64844 7.5293 6.5752 8.55469 6.58984C9.59473 6.60449 10.5762 6.79492 11.5137 7.14648C12.4365 7.5127 13.1982 8.04004 13.7988 8.72852C14.3994 9.43164 14.6924 10.3105 14.707 11.3506L14.7217 19.5977C14.707 19.9492 14.7217 20.3154 14.7656 20.6816C14.7949 21.0479 14.8975 21.3701 15.0586 21.6338C15.2197 21.9121 15.498 22.0439 15.8789 22.0439H11.2793C10.4883 22.0586 9.93164 21.8389 9.62402 21.4141C9.31641 20.9893 9.21387 20.2568 9.3457 19.2314C8.4668 20.374 7.48535 21.165 6.40137 21.5898C5.30273 22.0293 4.27734 22.1465 3.2959 21.9561C2.31445 21.7656 1.53809 21.2822 0.966797 20.5352C0.395508 19.7881 0.19043 18.792 0.351562 17.5615C0.512695 16.5801 0.878906 15.8184 1.43555 15.2617C1.99219 14.7051 2.65137 14.2803 3.41309 13.9727C4.16016 13.665 4.93652 13.416 5.71289 13.2256C6.65039 12.9912 7.45605 12.6982 8.14453 12.3613C8.81836 12.0244 9.21387 11.4824 9.33105 10.7646C9.50684 8.9043 8.9502 7.79102 7.67578 7.43945C6.38672 7.10254 5.34668 7.14648 4.55566 7.60059C5.36133 7.54199 6.00586 7.74707 6.51855 8.23047C7.03125 8.71387 7.28027 9.28516 7.28027 9.94434C7.28027 10.6035 7.0459 11.1748 6.57715 11.6289C6.1084 12.0977 5.53711 12.332 4.87793 12.332C4.21875 12.332 3.66211 12.0977 3.19336 11.6289C2.72461 11.1748 2.49023 10.6035 2.49023 9.94434C2.49023 9.63672 2.53418 9.3584 2.63672 9.09473ZM27.5537 2.42969C27.7295 2.42969 31.9775 2.16602 33.0029 0.964844L33.0615 22.0439C31.377 20.916 28.4033 20.1543 27.4951 21.0625C26.5723 22.0439 25.8398 22.0732 24.3164 22.0439C21.5625 21.9707 17.0361 19.9199 17.0361 14.4121C17.0801 7.9082 22.9395 4.17285 27.5537 8.47949V2.42969ZM25.3711 21.6338C26.3818 21.6338 27.29 20.5938 27.5537 18.5137V8.81641C21.8848 4.12891 21.0205 21.2676 25.3711 21.6338ZM45.4834 2.42969C45.6592 2.42969 49.9072 2.16602 50.9326 0.964844L50.9912 22.0439C49.3066 20.916 46.333 20.1543 45.4248 21.0625C44.502 22.0439 43.7695 22.0732 42.2461 22.0439C39.4922 21.9707 34.9658 19.9199 34.9658 14.4121C35.0098 7.9082 40.8691 4.17285 45.4834 8.47949V2.42969ZM43.3008 21.6338C44.3115 21.6338 45.2197 20.5938 45.4834 18.5137V8.81641C39.8145 4.12891 38.9502 21.2676 43.3008 21.6338ZM57.334 17.8838H56.5723C56.5723 10.3691 53.6719 5.6377 53.6719 3.77734C53.6719 1.90234 55.1221 0.950195 56.9238 0.950195C58.7256 0.950195 60.1904 1.90234 60.1904 3.77734C60.1904 5.6377 57.334 10.3691 57.334 17.8838ZM54.6094 21.6777C54.6094 20.418 55.6201 19.4365 56.8799 19.4365C58.1396 19.4365 59.1504 20.418 59.1504 21.6777C59.1504 22.9375 58.1396 23.9775 56.8799 23.9775C55.6201 23.9775 54.6094 22.9375 54.6094 21.6777Z" fill="#E8E8E8"/>
</svg>
