<svg width="96" height="25" viewBox="0 0 96 25" fill="none" xmlns="http://www.w3.org/2000/svg">
<path d="M9.11133 7.16113C8.11523 6.94141 7.30957 7.17578 6.67969 7.87891C6.0498 8.59668 5.63965 9.49023 5.46387 10.5742C5.27344 11.6729 5.30273 12.874 5.53711 14.207C5.77148 15.54 6.34277 16.6387 7.23633 17.5029C8.12988 18.3672 9.30176 18.8359 10.7373 18.9092C12.1729 18.9824 13.4473 18.2354 14.5459 16.668C14.1064 18.499 13.2715 19.8613 12.0557 20.7402C10.8398 21.6338 9.46289 22.0879 7.93945 22.1025C5.77148 22.1025 3.98438 21.4141 2.57812 20.0371C1.17188 18.6748 0.424805 16.7705 0.351562 14.3389C0.336914 12.918 0.688477 11.585 1.3916 10.3252C2.09473 9.06543 3.06152 8.08398 4.27734 7.39551C5.49316 6.70703 7.00195 6.45801 8.80371 6.67773C9.69727 6.78027 10.4883 7.05859 11.1768 7.49805C11.8652 7.9375 12.3779 8.4209 12.7148 8.91895C13.0518 9.43164 13.2275 10.0176 13.2275 10.6768C13.2275 11.3359 12.9932 11.9072 12.5244 12.3613C12.0557 12.8301 11.499 13.0645 10.8398 13.0645C10.1807 13.0645 9.60938 12.8301 9.14062 12.3613C8.67188 11.9072 8.4375 11.3359 8.4375 10.6768C8.4375 10.0176 8.67188 9.44629 9.14062 8.97754C9.60938 8.52344 10.2979 8.27441 11.2061 8.23047C10.8105 7.74707 10.1074 7.38086 9.11133 7.16113ZM21.5332 10.6621V22.0146H16.084L16.0986 2.47363C18.8672 2.64941 20.6689 2.15137 21.5332 1.00879V9.88574C21.8701 8.80176 22.4854 7.98145 23.4082 7.43945C24.4336 6.83887 25.5615 6.5752 26.8066 6.64844C28.0371 6.73633 29.1064 7.16113 30.0146 7.9375C30.9082 8.71387 31.377 9.8418 31.4209 11.3066L31.4355 22H26.0596L26.0449 10.5303C26.001 9.31445 25.6348 8.55273 24.9609 8.21582C24.2725 7.89355 23.5693 7.98145 22.8369 8.49414C22.207 8.93359 21.7676 9.65137 21.5332 10.6621ZM39.6387 6.69238C41.8359 6.34082 43.6816 6.86816 45.1904 8.27441C46.6992 9.68066 47.4902 11.8047 47.5635 14.6611L38.7305 14.749C39.1699 16.1992 39.8438 17.2246 40.7373 17.8252C41.6309 18.4258 42.7295 18.748 44.0479 18.8066C45.3662 18.8652 46.626 18.1475 47.8418 16.668C47.3877 18.499 46.5381 19.8613 45.293 20.7402C44.0479 21.6191 42.6416 22.0586 41.0889 22.0879C38.877 22.0879 37.0459 21.3994 35.6104 20.0371C34.1748 18.6748 33.4131 16.7705 33.3398 14.3535C33.3252 12.5225 33.8525 10.8818 34.9365 9.40234C36.0205 7.9082 37.5879 7.01465 39.6387 6.69238ZM38.6133 14.2949C39.624 14.2803 40.459 14.2217 41.1182 14.1338C42.041 14.0166 42.4365 13.4307 42.3193 12.3906C42.2461 11.9219 42.1582 11.4678 42.041 11.0283C41.8506 10.252 41.6016 9.53418 41.2939 8.86035C40.7959 7.79102 40.1953 7.23438 39.4775 7.20508C38.7305 7.17578 38.3057 7.84961 38.1738 9.24121C38.042 10.6182 38.1885 12.3027 38.6133 14.2949ZM57.627 7.16113C56.6309 6.94141 55.8252 7.17578 55.1953 7.87891C54.5654 8.59668 54.1553 9.49023 53.9795 10.5742C53.7891 11.6729 53.8184 12.874 54.0527 14.207C54.2871 15.54 54.8584 16.6387 55.752 17.5029C56.6455 18.3672 57.8174 18.8359 59.2529 18.9092C60.6885 18.9824 61.9629 18.2354 63.0615 16.668C62.6221 18.499 61.7871 19.8613 60.5713 20.7402C59.3555 21.6338 57.9785 22.0879 56.4551 22.1025C54.2871 22.1025 52.5 21.4141 51.0938 20.0371C49.6875 18.6748 48.9404 16.7705 48.8672 14.3389C48.8525 12.918 49.2041 11.585 49.9072 10.3252C50.6104 9.06543 51.5771 8.08398 52.793 7.39551C54.0088 6.70703 55.5176 6.45801 57.3193 6.67773C58.2129 6.78027 59.0039 7.05859 59.6924 7.49805C60.3809 7.9375 60.8936 8.4209 61.2305 8.91895C61.5674 9.43164 61.7432 10.0176 61.7432 10.6768C61.7432 11.3359 61.5088 11.9072 61.04 12.3613C60.5713 12.8301 60.0146 13.0645 59.3555 13.0645C58.6963 13.0645 58.125 12.8301 57.6562 12.3613C57.1875 11.9072 56.9531 11.3359 56.9531 10.6768C56.9531 10.0176 57.1875 9.44629 57.6562 8.97754C58.125 8.52344 58.8135 8.27441 59.7217 8.23047C59.3262 7.74707 58.623 7.38086 57.627 7.16113ZM70.0781 13.8115V22.0146H64.6289V2.47363C67.4268 2.60547 69.2432 2.12207 70.0781 1.00879V11.2334C70.4297 9.8125 71.0303 8.72852 71.8799 7.95215C72.8613 7.05859 73.9014 6.67773 75.0293 6.79492C76.04 6.89746 76.9189 7.36621 77.6221 8.18652C78.0762 8.65527 78.2959 9.19727 78.2959 9.8418C78.2959 10.501 78.0615 11.0723 77.5928 11.541C77.124 12.0098 76.5527 12.2441 75.8936 12.2441C75.2344 12.2441 74.6777 12.0098 74.209 11.541C73.7402 11.0723 73.5059 10.501 73.5059 9.8418C73.5059 9.18262 73.7402 8.62598 74.209 8.15723C74.5898 7.77637 75.1025 7.54199 75.7617 7.4541C74.6045 7.08789 73.667 7.13184 72.9492 7.58594C72.2168 8.04004 71.5723 8.77246 71.001 9.7832C70.5908 10.5156 70.2832 11.3799 70.0781 12.3467V13.46H75.3516L79.6875 22.0146H74.2383L70.0781 13.8115ZM84.1553 21.7803C84.1553 20.3594 85.2832 19.2754 86.7188 19.2754C88.1543 19.2754 89.2969 20.3594 89.2969 21.7803C89.2969 23.2012 88.1543 24.373 86.7188 24.373C85.2832 24.373 84.1553 23.2012 84.1553 21.7803ZM86.1182 17.7227C81.2842 10.9111 91.582 10.9404 91.9043 3.58691C91.9189 2.47363 91.2305 1.81445 90.3516 1.69727C86.4404 1.49219 85.0488 6.07715 84.6533 8.30371L81.416 5.21289C84.1699 0.950195 87.4219 0.964844 88.667 0.964844C92.124 0.964844 95.2148 2.81055 95.2148 6.5459C95.2148 11.1455 90.1025 13.7383 87.876 15.4375C86.6309 16.3604 86.8066 16.8291 87.0703 17.708L86.1182 17.7227Z" fill="#E8E8E8"/>
</svg>
