<svg width="77" height="24" viewBox="0 0 77 24" fill="none" xmlns="http://www.w3.org/2000/svg">
<path d="M10.9131 2.42969C11.0889 2.42969 15.3369 2.16602 16.3623 0.964844L16.4209 22.0439C14.7363 20.916 11.7627 20.1543 10.8545 21.0625C9.93164 22.0439 9.19922 22.0732 7.67578 22.0439C4.92188 21.9707 0.395508 19.9199 0.395508 14.4121C0.439453 7.9082 6.29883 4.17285 10.9131 8.47949V2.42969ZM8.73047 21.6338C9.74121 21.6338 10.6494 20.5938 10.9131 18.5137V8.81641C5.24414 4.12891 4.37988 21.2676 8.73047 21.6338ZM26.5723 6.5752C31.04 6.5752 34.6582 10.0176 34.6582 14.2803C34.6582 18.5283 31.04 21.9707 26.5723 21.9707C22.0898 21.9707 18.4717 18.5283 18.4717 14.2803C18.4717 10.0176 22.0898 6.5752 26.5723 6.5752ZM29.2676 13.5186C28.1689 9.68066 26.0596 6.89746 24.5654 7.30762C23.0566 7.73242 22.749 11.1748 23.8623 15.0273C24.9609 18.8652 27.0703 21.6484 28.5791 21.2383C30.0732 20.8135 30.3809 17.3711 29.2676 13.5186ZM42.0703 10.7939V22H36.6211V8.20117C38.9355 8.3623 40.752 7.82031 42.0703 6.58984V9.87109C42.3926 8.78711 43.0225 7.9668 43.9453 7.4248C44.9707 6.82422 46.0986 6.5752 47.3438 6.64844C48.5742 6.73633 49.6436 7.16113 50.5518 7.9375C51.4453 8.71387 51.9141 9.82715 51.958 11.292L51.9727 21.9854H46.5967L46.5674 10.5303C46.5234 9.31445 46.1572 8.55273 45.4834 8.25977C44.8096 7.9668 44.1064 8.08398 43.374 8.62598C42.7588 9.08008 42.3193 9.79785 42.0703 10.7939ZM59.9707 6.69238C62.168 6.34082 64.0137 6.86816 65.5225 8.27441C67.0312 9.68066 67.8223 11.8047 67.8955 14.6611L59.0625 14.749C59.502 16.1992 60.1758 17.2246 61.0693 17.8252C61.9629 18.4258 63.0615 18.748 64.3799 18.8066C65.6982 18.8652 66.958 18.1475 68.1738 16.668C67.7197 18.499 66.8701 19.8613 65.625 20.7402C64.3799 21.6191 62.9736 22.0586 61.4209 22.0879C59.209 22.0879 57.3779 21.3994 55.9424 20.0371C54.5068 18.6748 53.7451 16.7705 53.6719 14.3535C53.6572 12.5225 54.1846 10.8818 55.2686 9.40234C56.3525 7.9082 57.9199 7.01465 59.9707 6.69238ZM58.9453 14.2949C59.9561 14.2803 60.791 14.2217 61.4502 14.1338C62.373 14.0166 62.7686 13.4307 62.6514 12.3906C62.5781 11.9219 62.4902 11.4678 62.373 11.0283C62.1826 10.252 61.9336 9.53418 61.626 8.86035C61.1279 7.79102 60.5273 7.23438 59.8096 7.20508C59.0625 7.17578 58.6377 7.84961 58.5059 9.24121C58.374 10.6182 58.5205 12.3027 58.9453 14.2949ZM74.1211 17.8838H73.3594C73.3594 10.3691 70.459 5.6377 70.459 3.77734C70.459 1.90234 71.9092 0.950195 73.7109 0.950195C75.5127 0.950195 76.9775 1.90234 76.9775 3.77734C76.9775 5.6377 74.1211 10.3691 74.1211 17.8838ZM71.3965 21.6777C71.3965 20.418 72.4072 19.4365 73.667 19.4365C74.9268 19.4365 75.9375 20.418 75.9375 21.6777C75.9375 22.9375 74.9268 23.9775 73.667 23.9775C72.4072 23.9775 71.3965 22.9375 71.3965 21.6777Z" fill="#E8E8E8"/>
</svg>
