<svg width="75" height="25" viewBox="0 0 75 25" fill="none" xmlns="http://www.w3.org/2000/svg">
<path d="M6.12305 10.6621V22.0146H0.673828L0.688477 2.47363C3.45703 2.64941 5.25879 2.15137 6.12305 1.00879V9.88574C6.45996 8.80176 7.0752 7.98145 7.99805 7.43945C9.02344 6.83887 10.1514 6.5752 11.3965 6.64844C12.627 6.73633 13.6963 7.16113 14.6045 7.9375C15.498 8.71387 15.9668 9.8418 16.0107 11.3066L16.0254 22H10.6494L10.6348 10.5303C10.5908 9.31445 10.2246 8.55273 9.55078 8.21582C8.8623 7.89355 8.15918 7.98145 7.42676 8.49414C6.79688 8.93359 6.35742 9.65137 6.12305 10.6621ZM26.2207 6.5752C30.6885 6.5752 34.3066 10.0176 34.3066 14.2803C34.3066 18.5283 30.6885 21.9707 26.2207 21.9707C21.7383 21.9707 18.1201 18.5283 18.1201 14.2803C18.1201 10.0176 21.7383 6.5752 26.2207 6.5752ZM28.916 13.5186C27.8174 9.68066 25.708 6.89746 24.2139 7.30762C22.7051 7.73242 22.3975 11.1748 23.5107 15.0273C24.6094 18.8652 26.7188 21.6484 28.2275 21.2383C29.7217 20.8135 30.0293 17.3711 28.916 13.5186ZM47.2412 15.5547L44.9414 22H39.8877L34.6289 6.61914L40.0635 6.60449L44.9561 20.4912C45.9375 18.1182 46.5381 16.0234 46.7725 14.1924L44.1797 6.58984L49.5996 6.5752L54.4922 20.4619C55.5469 17.9277 56.1768 15.7012 56.3672 13.7969C56.5576 11.8926 56.4258 10.3252 55.9863 9.10938C55.5469 7.89355 54.9023 7.05859 54.0527 6.5752H57.4951C57.7881 6.5752 58.0811 6.58984 58.3594 6.61914C58.6377 6.66309 58.8574 6.76562 59.0186 6.94141C59.1797 7.13184 59.2676 7.4248 59.2676 7.84961C59.2529 8.27441 59.1211 8.86035 58.8721 9.60742L54.4775 21.9707H49.4238L47.2412 15.5547ZM63.7939 21.7803C63.7939 20.3594 64.9219 19.2754 66.3574 19.2754C67.793 19.2754 68.9355 20.3594 68.9355 21.7803C68.9355 23.2012 67.793 24.373 66.3574 24.373C64.9219 24.373 63.7939 23.2012 63.7939 21.7803ZM65.7568 17.7227C60.9229 10.9111 71.2207 10.9404 71.543 3.58691C71.5576 2.47363 70.8691 1.81445 69.9902 1.69727C66.0791 1.49219 64.6875 6.07715 64.292 8.30371L61.0547 5.21289C63.8086 0.950195 67.0605 0.964844 68.3057 0.964844C71.7627 0.964844 74.8535 2.81055 74.8535 6.5459C74.8535 11.1455 69.7412 13.7383 67.5146 15.4375C66.2695 16.3604 66.4453 16.8291 66.709 17.708L65.7568 17.7227Z" fill="#E8E8E8"/>
</svg>
