<svg width="86" height="25" viewBox="0 0 86 25" fill="none" xmlns="http://www.w3.org/2000/svg">
<path d="M12.7295 15.5547L10.4297 22H5.37598L0.117188 6.61914L5.55176 6.60449L10.4443 20.4912C11.4258 18.1182 12.0264 16.0234 12.2607 14.1924L9.66797 6.58984L15.0879 6.5752L19.9805 20.4619C21.0352 17.9277 21.665 15.7012 21.8555 13.7969C22.0459 11.8926 21.9141 10.3252 21.4746 9.10938C21.0352 7.89355 20.3906 7.05859 19.541 6.5752H22.9834C23.2764 6.5752 23.5693 6.58984 23.8477 6.61914C24.126 6.66309 24.3457 6.76562 24.5068 6.94141C24.668 7.13184 24.7559 7.4248 24.7559 7.84961C24.7412 8.27441 24.6094 8.86035 24.3604 9.60742L19.9658 21.9707H14.9121L12.7295 15.5547ZM31.9922 10.6621V22.0146H26.543L26.5576 2.47363C29.3262 2.64941 31.1279 2.15137 31.9922 1.00879V9.88574C32.3291 8.80176 32.9443 7.98145 33.8672 7.43945C34.8926 6.83887 36.0205 6.5752 37.2656 6.64844C38.4961 6.73633 39.5654 7.16113 40.4736 7.9375C41.3672 8.71387 41.8359 9.8418 41.8799 11.3066L41.8945 22H36.5186L36.5039 10.5303C36.46 9.31445 36.0938 8.55273 35.4199 8.21582C34.7314 7.89355 34.0283 7.98145 33.2959 8.49414C32.666 8.93359 32.2266 9.65137 31.9922 10.6621ZM52.7783 11.4971C52.7051 11.7461 52.5439 11.9951 52.3096 12.2148C52.0605 12.4492 51.7822 12.6982 51.46 12.9473C50.918 13.3428 50.3906 13.8408 49.9072 14.4121C49.4238 14.998 49.1309 15.7451 49.0576 16.668C49.043 17.6348 49.248 18.4111 49.6729 18.9824C50.083 19.5684 50.5811 19.876 51.167 19.9053C51.7529 19.9346 52.2949 19.5977 52.793 18.9092L52.7783 11.4971ZM46.084 9.09473C46.2305 8.68457 46.5234 8.27441 46.9629 7.86426C47.5342 7.32227 48.252 6.9707 49.1455 6.80957C50.0244 6.64844 50.9766 6.5752 52.002 6.58984C53.042 6.60449 54.0234 6.79492 54.9609 7.14648C55.8838 7.5127 56.6455 8.04004 57.2461 8.72852C57.8467 9.43164 58.1396 10.3105 58.1543 11.3506L58.1689 19.5977C58.1543 19.9492 58.1689 20.3154 58.2129 20.6816C58.2422 21.0479 58.3447 21.3701 58.5059 21.6338C58.667 21.9121 58.9453 22.0439 59.3262 22.0439H54.7266C53.9355 22.0586 53.3789 21.8389 53.0713 21.4141C52.7637 20.9893 52.6611 20.2568 52.793 19.2314C51.9141 20.374 50.9326 21.165 49.8486 21.5898C48.75 22.0293 47.7246 22.1465 46.7432 21.9561C45.7617 21.7656 44.9854 21.2822 44.4141 20.5352C43.8428 19.7881 43.6377 18.792 43.7988 17.5615C43.96 16.5801 44.3262 15.8184 44.8828 15.2617C45.4395 14.7051 46.0986 14.2803 46.8604 13.9727C47.6074 13.665 48.3838 13.416 49.1602 13.2256C50.0977 12.9912 50.9033 12.6982 51.5918 12.3613C52.2656 12.0244 52.6611 11.4824 52.7783 10.7646C52.9541 8.9043 52.3975 7.79102 51.123 7.43945C49.834 7.10254 48.7939 7.14648 48.0029 7.60059C48.8086 7.54199 49.4531 7.74707 49.9658 8.23047C50.4785 8.71387 50.7275 9.28516 50.7275 9.94434C50.7275 10.6035 50.4932 11.1748 50.0244 11.6289C49.5557 12.0977 48.9844 12.332 48.3252 12.332C47.666 12.332 47.1094 12.0977 46.6406 11.6289C46.1719 11.1748 45.9375 10.6035 45.9375 9.94434C45.9375 9.63672 45.9814 9.3584 46.084 9.09473ZM58.8281 7.30762V7.01465C62.1094 6.79492 64.8486 4.68555 66.2256 1.8291V6.86816H68.8037V7.30762H66.2256V17.8545C66.2256 19.3047 67.0312 20.1689 68.1152 20.1689C68.6572 20.1689 69.2432 19.9492 69.8584 19.5098C69.0234 21.1064 67.2803 22.0146 65.6104 22.0146C63.5449 22.0146 60.8203 20.6084 60.8203 17.4443V7.30762H58.8281ZM74.4287 21.7803C74.4287 20.3594 75.5566 19.2754 76.9922 19.2754C78.4277 19.2754 79.5703 20.3594 79.5703 21.7803C79.5703 23.2012 78.4277 24.373 76.9922 24.373C75.5566 24.373 74.4287 23.2012 74.4287 21.7803ZM76.3916 17.7227C71.5576 10.9111 81.8555 10.9404 82.1777 3.58691C82.1924 2.47363 81.5039 1.81445 80.625 1.69727C76.7139 1.49219 75.3223 6.07715 74.9268 8.30371L71.6895 5.21289C74.4434 0.950195 77.6953 0.964844 78.9404 0.964844C82.3975 0.964844 85.4883 2.81055 85.4883 6.5459C85.4883 11.1455 80.376 13.7383 78.1494 15.4375C76.9043 16.3604 77.0801 16.8291 77.3438 17.708L76.3916 17.7227Z" fill="#E8E8E8"/>
</svg>
