<svg width="92" height="25" viewBox="0 0 92 25" fill="none" xmlns="http://www.w3.org/2000/svg">
<path d="M12.7295 15.5547L10.4297 22H5.37598L0.117188 6.61914L5.55176 6.60449L10.4443 20.4912C11.4258 18.1182 12.0264 16.0234 12.2607 14.1924L9.66797 6.58984L15.0879 6.5752L19.9805 20.4619C21.0352 17.9277 21.665 15.7012 21.8555 13.7969C22.0459 11.8926 21.9141 10.3252 21.4746 9.10938C21.0352 7.89355 20.3906 7.05859 19.541 6.5752H22.9834C23.2764 6.5752 23.5693 6.58984 23.8477 6.61914C24.126 6.66309 24.3457 6.76562 24.5068 6.94141C24.668 7.13184 24.7559 7.4248 24.7559 7.84961C24.7412 8.27441 24.6094 8.86035 24.3604 9.60742L19.9658 21.9707H14.9121L12.7295 15.5547ZM31.9922 10.6621V22.0146H26.543L26.5576 2.47363C29.3262 2.64941 31.1279 2.15137 31.9922 1.00879V9.88574C32.3291 8.80176 32.9443 7.98145 33.8672 7.43945C34.8926 6.83887 36.0205 6.5752 37.2656 6.64844C38.4961 6.73633 39.5654 7.16113 40.4736 7.9375C41.3672 8.71387 41.8359 9.8418 41.8799 11.3066L41.8945 22H36.5186L36.5039 10.5303C36.46 9.31445 36.0938 8.55273 35.4199 8.21582C34.7314 7.89355 34.0283 7.98145 33.2959 8.49414C32.666 8.93359 32.2266 9.65137 31.9922 10.6621ZM50.0977 6.69238C52.2949 6.34082 54.1406 6.86816 55.6494 8.27441C57.1582 9.68066 57.9492 11.8047 58.0225 14.6611L49.1895 14.749C49.6289 16.1992 50.3027 17.2246 51.1963 17.8252C52.0898 18.4258 53.1885 18.748 54.5068 18.8066C55.8252 18.8652 57.085 18.1475 58.3008 16.668C57.8467 18.499 56.9971 19.8613 55.752 20.7402C54.5068 21.6191 53.1006 22.0586 51.5479 22.0879C49.3359 22.0879 47.5049 21.3994 46.0693 20.0371C44.6338 18.6748 43.8721 16.7705 43.7988 14.3535C43.7842 12.5225 44.3115 10.8818 45.3955 9.40234C46.4795 7.9082 48.0469 7.01465 50.0977 6.69238ZM49.0723 14.2949C50.083 14.2803 50.918 14.2217 51.5771 14.1338C52.5 14.0166 52.8955 13.4307 52.7783 12.3906C52.7051 11.9219 52.6172 11.4678 52.5 11.0283C52.3096 10.252 52.0605 9.53418 51.7529 8.86035C51.2549 7.79102 50.6543 7.23438 49.9365 7.20508C49.1895 7.17578 48.7646 7.84961 48.6328 9.24121C48.501 10.6182 48.6475 12.3027 49.0723 14.2949ZM65.4492 10.7939V22H60V8.20117C62.3145 8.3623 64.1309 7.82031 65.4492 6.58984V9.87109C65.7715 8.78711 66.4014 7.9668 67.3242 7.4248C68.3496 6.82422 69.4775 6.5752 70.7227 6.64844C71.9531 6.73633 73.0225 7.16113 73.9307 7.9375C74.8242 8.71387 75.293 9.82715 75.3369 11.292L75.3516 21.9854H69.9756L69.9463 10.5303C69.9023 9.31445 69.5361 8.55273 68.8623 8.25977C68.1885 7.9668 67.4854 8.08398 66.7529 8.62598C66.1377 9.08008 65.6982 9.79785 65.4492 10.7939ZM80.1123 21.7803C80.1123 20.3594 81.2402 19.2754 82.6758 19.2754C84.1113 19.2754 85.2539 20.3594 85.2539 21.7803C85.2539 23.2012 84.1113 24.373 82.6758 24.373C81.2402 24.373 80.1123 23.2012 80.1123 21.7803ZM82.0752 17.7227C77.2412 10.9111 87.5391 10.9404 87.8613 3.58691C87.876 2.47363 87.1875 1.81445 86.3086 1.69727C82.3975 1.49219 81.0059 6.07715 80.6104 8.30371L77.373 5.21289C80.127 0.950195 83.3789 0.964844 84.624 0.964844C88.0811 0.964844 91.1719 2.81055 91.1719 6.5459C91.1719 11.1455 86.0596 13.7383 83.833 15.4375C82.5879 16.3604 82.7637 16.8291 83.0273 17.708L82.0752 17.7227Z" fill="#E8E8E8"/>
</svg>
